<svg width="777" height="736" viewBox="0 0 777 736" fill="none" xmlns="http://www.w3.org/2000/svg">
<path d="M19.3464 437.903C33.655 432.258 88.055 454.033 94.021 469.107C99.9871 484.181 83.2691 509.709 68.9605 515.354C54.6519 520.998 7.91836 494.752 1.95231 479.678C-4.01373 464.605 5.0378 443.547 19.3464 437.903Z" fill="#D5AD46" fill-opacity="0.25"/>
<path d="M278.213 697.08C266.803 737.134 235.554 734.176 201.368 735.057C166.846 731.941 141.145 727.645 152.555 687.591C178.157 657.702 177.247 669.528 220.018 669.587C262.788 669.647 289.623 657.025 278.213 697.08Z" fill="#D5AD46" fill-opacity="0.25"/>
<path d="M56.7836 277.193C151.681 110.029 193.161 266.135 415.103 115.521C485.037 79.1969 636.714 -38.6479 710.794 12.8012C803.393 77.1127 751.054 258.882 738.081 342.398C727.104 413.066 691.558 492.458 669.639 536.225C647.719 579.993 646.282 586.745 648.166 603.216C649.798 617.479 640.479 629.842 620.878 632.692C601.844 635.46 529.586 607.605 437.022 603.216C349.443 599.064 214.546 658.428 159.224 632.692C96.3879 603.461 138.042 532.384 149.383 475.933C166.93 388.59 -5.80163 387.439 56.7836 277.193Z" fill="#D5AD46" fill-opacity="0.25"/>
<g clip-path="url(#clip0)">
<path d="M583.086 371.805L588.526 368.452C589.044 368.125 589.553 367.776 590.078 367.449C578.409 365.444 567.776 359.521 559.938 350.659C552.099 341.796 547.527 330.527 546.976 318.715C546.576 310.592 548.114 302.489 551.462 295.076C554.58 288.139 559.184 281.97 564.949 277.003C570.713 272.036 577.499 268.393 584.827 266.33L584.557 287.715L596.319 264.439C596.368 264.431 596.417 264.431 596.465 264.439C603.281 264.121 610.093 265.147 616.512 267.459C622.931 269.77 628.832 273.322 633.876 277.91C638.921 282.499 643.011 288.036 645.913 294.203C648.815 300.371 650.472 307.049 650.79 313.856C650.834 314.845 650.79 315.82 650.79 316.766C654.883 312.103 658.598 307.106 661.059 301.629C666.041 290.537 666.158 277.975 665.742 262.708C664.956 232.449 663.652 201.965 661.948 171.569C649.667 170.206 638.274 164.515 629.818 155.518C621.361 146.52 616.394 134.805 615.809 122.479C615.736 120.886 615.758 119.322 615.809 117.765C615.809 117.38 615.809 116.987 615.867 116.601C615.969 115.096 616.108 113.605 616.341 112.135C616.341 111.888 616.428 111.655 616.472 111.408C616.686 110.162 616.94 108.93 617.237 107.713C617.353 107.262 617.462 106.804 617.586 106.353C617.95 105.029 618.315 103.727 618.817 102.44C618.97 102.01 619.152 101.596 619.312 101.174C619.684 100.228 620.084 99.2973 620.507 98.3736C620.733 97.8862 620.951 97.4062 621.191 96.9188C621.25 96.7952 621.301 96.6715 621.366 96.5479C626.85 85.7308 635.956 77.1747 647.101 72.3669C658.245 67.5591 670.725 66.8036 682.37 70.2317L682.02 98.0608L693.673 75.076C703.232 80.5401 710.791 88.9133 715.246 98.9725C719.701 109.032 720.819 120.25 718.436 130.989H718.494C718.414 131.36 718.298 131.716 718.21 132.08C718.05 132.763 717.875 133.44 717.686 134.116C717.438 134.982 717.162 135.833 716.877 136.684C716.659 137.317 716.448 137.964 716.207 138.59C715.858 139.506 715.479 140.401 715.057 141.296C714.824 141.819 714.612 142.35 714.328 142.867C713.663 144.205 712.935 145.514 712.143 146.794C711.874 147.238 711.568 147.66 711.284 148.104C710.731 148.962 710.17 149.813 709.565 150.642C709.194 151.151 708.793 151.639 708.4 152.141C707.832 152.868 707.249 153.595 706.645 154.257C706.215 154.745 705.778 155.225 705.326 155.712C704.693 156.381 704.037 157.028 703.36 157.669C702.916 158.098 702.464 158.527 701.998 158.934C701.233 159.611 700.432 160.258 699.624 160.891C699.216 161.211 698.823 161.545 698.4 161.851C697.172 162.763 695.902 163.618 694.591 164.419C694.343 164.564 694.081 164.688 693.863 164.833C692.77 165.48 691.678 166.084 690.505 166.652C690.017 166.892 689.507 167.103 689.005 167.328C688.065 167.75 687.119 168.157 686.15 168.528C685.589 168.739 685.014 168.935 684.438 169.132C683.484 169.459 682.516 169.757 681.525 170.027C680.942 170.187 680.367 170.347 679.777 170.485C678.714 170.739 677.629 170.95 676.536 171.132C676.463 171.132 676.398 171.132 676.325 171.176C677.043 183.997 677.682 196.825 678.24 209.661C681.338 203.31 685.703 197.657 691.066 193.051C696.429 188.445 702.679 184.981 709.43 182.873C716.182 180.766 723.293 180.057 730.329 180.793C737.364 181.528 744.175 183.691 750.344 187.149L741.16 212.279L760.052 194.161C770.165 203.418 776.189 216.304 776.803 229.991C777.044 234.793 776.6 239.606 775.485 244.283C773.112 254.407 767.747 263.584 760.087 270.624C752.427 277.665 742.825 282.244 732.527 283.767C722.229 285.291 711.71 283.688 702.335 279.168C692.96 274.647 685.162 267.417 679.952 258.416C679.952 259.718 680.047 261.027 680.083 262.329C680.425 275.8 680.855 292.559 674.133 307.528C669.581 317.675 662.247 325.916 655 333.299C650.288 338.107 645.401 342.754 640.39 347.257C635.463 353.864 629.032 359.205 621.628 362.837C613.398 369.17 604.877 375.1 596.064 380.628L590.711 384.076C585.766 387.138 580.697 390.281 575.723 393.532C576.597 393.445 577.463 393.35 578.352 393.314C589.363 392.798 600.253 395.792 609.448 401.863C618.644 407.933 625.669 416.766 629.509 427.085L597.04 453.482L632.728 445.211C632.718 453.986 630.481 462.615 626.227 470.293C621.972 477.97 615.838 484.445 608.398 489.112C600.958 493.78 592.454 496.488 583.682 496.983C574.91 497.479 566.155 495.745 558.236 491.945C559.037 492.949 559.845 493.945 560.647 494.941C562.242 496.927 563.829 498.898 565.381 500.855C586.502 527.571 592.387 552.942 581.921 572.282L569.204 565.416C579.401 546.592 564.106 522.501 554.033 509.802C552.511 507.881 550.953 505.947 549.379 503.983C535.884 487.253 520.589 468.254 520.975 444.971C521.521 409.912 555.672 388.768 583.086 371.805Z" fill="#CDCDCD"/>
<path d="M417.161 579.993C600.38 579.993 748.909 573.154 748.909 564.718C748.909 556.282 600.38 549.443 417.161 549.443C233.942 549.443 85.4133 556.282 85.4133 564.718C85.4133 573.154 233.942 579.993 417.161 579.993Z" fill="#797789"/>
<path d="M685.174 559.023C687.359 555.015 684.883 550.105 682.057 546.526C679.231 542.948 675.786 539.253 675.859 534.678C675.961 528.131 682.916 524.269 688.481 520.799C692.601 518.222 696.403 515.168 699.806 511.7C701.234 510.366 702.415 508.79 703.295 507.045C704.438 504.485 704.409 501.575 704.336 498.767C704.093 489.428 703.632 480.098 702.952 470.778" stroke="#3F3D56" stroke-width="4" stroke-miterlimit="10"/>
<path d="M713.52 470.284C713.438 468.575 712.929 466.914 712.038 465.452C711.148 463.991 709.904 462.776 708.422 461.919L706.135 466.443L706.2 460.973C704.636 460.505 702.982 460.419 701.378 460.723C699.773 461.026 698.265 461.71 696.981 462.716C695.696 463.723 694.672 465.023 693.995 466.507C693.318 467.991 693.008 469.615 693.091 471.244C693.218 473.945 694.415 476.484 696.417 478.304C697.408 479.205 698.568 479.902 699.829 480.355C701.09 480.809 702.429 481.01 703.768 480.947C705.107 480.884 706.42 480.558 707.633 479.988C708.846 479.418 709.935 478.615 710.837 477.625C711.739 476.635 712.437 475.477 712.891 474.217C713.345 472.958 713.547 471.621 713.483 470.284H713.52Z" fill="#57B793"/>
<path d="M695.29 539.384C694.22 541.46 692.467 543.106 690.327 544.045C688.186 544.985 685.787 545.161 683.531 544.544C681.276 543.927 679.301 542.555 677.939 540.657C676.576 538.759 675.908 536.451 676.046 534.12C676.184 531.789 677.121 529.576 678.699 527.852C680.277 526.128 682.4 524.999 684.712 524.652C687.025 524.306 689.386 524.764 691.401 525.949C693.416 527.135 694.961 528.976 695.778 531.164L689.398 536.351L696.419 534.721C696.42 536.343 696.033 537.941 695.29 539.384Z" fill="#57B793"/>
<path d="M690.243 519.534C688.902 519.598 687.561 519.398 686.298 518.943C685.035 518.489 683.874 517.79 682.882 516.886C681.89 515.983 681.086 514.892 680.517 513.678C679.948 512.463 679.625 511.149 679.566 509.809C679.485 508.212 679.787 506.618 680.447 505.161C681.059 503.797 681.963 502.583 683.096 501.605C684.228 500.627 685.562 499.91 687.002 499.502L686.951 503.714L689.267 499.131C691.976 499.005 694.625 499.958 696.63 501.782C698.635 503.606 699.832 506.151 699.959 508.856C700.085 511.562 699.13 514.207 697.304 516.209C695.478 518.211 692.93 519.407 690.221 519.534H690.243Z" fill="#57B793"/>
<path d="M715.057 503.015C712.353 503.143 709.708 502.192 707.706 500.372C705.704 498.553 704.507 496.013 704.38 493.312C704.252 490.611 705.204 487.971 707.026 485.971C708.848 483.971 711.391 482.776 714.095 482.649C716.007 482.555 717.906 483.004 719.572 483.944L717.766 488.89L721.48 485.326C723.474 487.145 724.663 489.68 724.787 492.374C724.833 493.317 724.745 494.263 724.525 495.182C724.015 497.338 722.815 499.27 721.106 500.684C719.397 502.098 717.273 502.916 715.057 503.015Z" fill="#57B793"/>
<path opacity="0.1" d="M712.144 472.975C709.784 473.237 707.49 473.972 705.123 474.117C702.756 474.262 700.155 473.695 698.655 471.855C697.847 470.866 697.446 469.615 696.761 468.538C696.117 467.532 695.234 466.7 694.191 466.116C693.574 467.403 693.235 468.806 693.196 470.233C693.157 471.659 693.419 473.078 693.964 474.398C694.51 475.717 695.327 476.907 696.362 477.89C697.398 478.874 698.629 479.629 699.976 480.106C701.323 480.584 702.755 480.774 704.18 480.663C705.604 480.552 706.99 480.144 708.246 479.464C709.503 478.784 710.602 477.848 711.473 476.716C712.344 475.584 712.967 474.283 713.302 472.895C712.908 472.91 712.522 472.939 712.144 472.975Z" fill="black"/>
<path opacity="0.1" d="M715.057 503.015C713.294 503.105 711.538 502.735 709.961 501.944C708.384 501.152 707.039 499.965 706.059 498.499C705.079 497.033 704.497 495.337 704.37 493.579C704.243 491.821 704.575 490.06 705.334 488.468C706.145 489.015 706.843 489.714 707.388 490.526C708.116 491.625 708.553 492.89 709.412 493.901C711 495.771 713.724 496.382 716.193 496.265C718.662 496.149 721.036 495.458 723.476 495.232C723.811 495.232 724.161 495.174 724.503 495.167C723.997 497.323 722.801 499.256 721.097 500.672C719.392 502.088 717.272 502.911 715.057 503.015Z" fill="black"/>
<path opacity="0.1" d="M690.243 519.534C688.902 519.598 687.561 519.398 686.298 518.943C685.035 518.489 683.874 517.79 682.882 516.886C681.89 515.983 681.086 514.893 680.517 513.678C679.948 512.463 679.625 511.149 679.566 509.809C679.485 508.212 679.787 506.618 680.447 505.161C681.295 505.715 682.035 506.417 682.632 507.234C683.426 508.354 683.921 509.642 684.817 510.675C686.543 512.595 689.442 513.271 692.057 513.206C694.671 513.14 697.024 512.529 699.544 512.34C698.922 514.349 697.695 516.117 696.031 517.404C694.367 518.691 692.346 519.435 690.243 519.534Z" fill="black"/>
<path opacity="0.1" d="M695.29 539.384C694.74 540.606 693.955 541.708 692.978 542.627C692.002 543.546 690.854 544.264 689.6 544.739C688.345 545.215 687.01 545.44 685.669 545.4C684.328 545.36 683.007 545.057 681.784 544.508C680.56 543.959 679.456 543.174 678.536 542.199C677.616 541.224 676.897 540.077 676.421 538.825C675.944 537.572 675.72 536.238 675.759 534.899C675.799 533.559 676.103 532.241 676.653 531.019C677.492 531.576 678.247 532.249 678.896 533.019C679.865 534.205 680.506 535.543 681.634 536.656C683.725 538.7 687.097 539.565 690.097 539.624C691.832 539.646 693.566 539.566 695.29 539.384Z" fill="black"/>
<path d="M669.763 554.404C669.763 554.404 677.825 554.156 680.258 552.425C682.69 550.694 692.639 548.628 693.273 551.407C693.906 554.186 705.399 565.227 696.288 565.271C687.177 565.314 675.123 563.816 672.698 562.361C670.273 560.906 669.763 554.404 669.763 554.404Z" fill="#656380"/>
<path opacity="0.2" d="M696.448 564.303C687.344 564.376 675.283 562.849 672.858 561.394C671.016 560.274 670.273 556.237 670.032 554.375H669.763C669.763 554.375 670.273 560.87 672.676 562.376C675.08 563.881 687.155 565.343 696.266 565.285C698.895 565.285 699.806 564.325 699.755 562.943C699.412 563.765 698.407 564.289 696.448 564.303Z" fill="black"/>
<path d="M227.005 536.583C221.718 526.807 227.733 514.835 234.609 506.121C241.484 497.407 249.903 488.344 249.721 477.237C249.459 461.279 232.504 451.86 218.957 443.4C208.905 437.122 199.632 429.678 191.332 421.223C188.004 417.826 184.777 414.204 182.84 409.869C180.043 403.628 180.116 396.536 180.298 389.699C180.881 366.908 182.007 344.161 183.678 321.457" stroke="#3F3D56" stroke-width="4" stroke-miterlimit="10"/>
<path d="M157.917 320.213C158.117 316.05 159.36 312.003 161.534 308.444C163.707 304.886 166.741 301.93 170.357 299.847L175.936 310.867L175.768 297.527C180.836 296.035 186.248 296.191 191.222 297.971C196.196 299.752 200.475 303.065 203.44 307.433C206.406 311.8 207.905 316.996 207.72 322.269C207.536 327.543 205.679 332.622 202.416 336.772C199.153 340.923 194.654 343.931 189.568 345.361C184.482 346.791 179.073 346.57 174.121 344.73C169.169 342.89 164.93 339.525 162.018 335.122C159.105 330.72 157.669 325.506 157.917 320.235V320.213Z" fill="#57B793"/>
<path d="M202.359 488.643C204.864 493.519 208.912 497.433 213.874 499.775C218.836 502.118 224.433 502.758 229.797 501.597C235.16 500.436 239.99 497.539 243.535 493.355C247.08 489.171 249.142 483.934 249.401 478.459C249.575 475.018 249.021 471.578 247.777 468.364C245.957 463.649 242.744 459.599 238.564 456.753C234.385 453.906 229.437 452.397 224.378 452.426C219.319 452.455 214.388 454.021 210.242 456.916C206.095 459.811 202.929 463.898 201.164 468.633L216.729 481.274L199.606 477.296C199.599 481.244 200.543 485.136 202.359 488.643Z" fill="#57B793"/>
<path d="M214.66 440.331C220.77 440.61 226.77 438.635 231.517 434.783C236.264 430.93 239.426 425.469 240.402 419.438C241.378 413.408 240.1 407.23 236.81 402.08C233.52 396.93 228.449 393.168 222.562 391.51L222.693 401.759L217.085 390.608H217.02C210.417 390.3 203.962 392.625 199.074 397.07C194.187 401.516 191.269 407.718 190.961 414.313C190.653 420.907 192.98 427.354 197.432 432.235C201.883 437.116 208.093 440.03 214.697 440.338L214.66 440.331Z" fill="#57B793"/>
<path d="M154.166 400.129C158.024 400.317 161.873 399.606 165.409 398.054C168.945 396.502 172.072 394.15 174.541 391.184C177.011 388.218 178.757 384.719 179.641 380.964C180.525 377.209 180.522 373.3 179.634 369.545C178.746 365.791 176.997 362.294 174.523 359.331C172.05 356.368 168.921 354.02 165.384 352.471C161.846 350.923 157.996 350.216 154.138 350.409C150.28 350.601 146.52 351.686 143.154 353.578L147.524 365.63L138.5 356.924C136.088 359.116 134.132 361.762 132.745 364.71C131.358 367.658 130.566 370.85 130.416 374.104C130.3 376.406 130.514 378.713 131.05 380.956C132.288 386.229 135.216 390.954 139.388 394.415C143.56 397.875 148.749 399.881 154.166 400.129Z" fill="#57B793"/>
<path opacity="0.1" d="M161.267 326.847C167.021 327.48 172.614 329.262 178.383 329.618C184.151 329.975 190.495 328.6 194.144 324.119C196.11 321.704 197.093 318.65 198.754 316.016C200.327 313.563 202.484 311.537 205.032 310.118C206.618 313.272 207.515 316.727 207.662 320.253C207.81 323.78 207.204 327.298 205.886 330.573C204.568 333.848 202.568 336.806 200.018 339.25C197.468 341.694 194.427 343.568 191.096 344.748C187.765 345.929 184.221 346.388 180.699 346.096C177.176 345.804 173.757 344.767 170.666 343.054C167.576 341.341 164.886 338.991 162.775 336.161C160.663 333.33 159.179 330.083 158.42 326.636C159.388 326.68 160.335 326.745 161.267 326.847Z" fill="black"/>
<path opacity="0.1" d="M154.166 400.129C158.461 400.327 162.733 399.413 166.57 397.475C170.406 395.537 173.675 392.642 176.061 389.07C178.446 385.499 179.867 381.372 180.184 377.09C180.502 372.808 179.706 368.517 177.873 364.634C175.894 365.962 174.193 367.662 172.862 369.638C171.085 372.315 170.014 375.406 167.924 377.864C164.042 382.418 157.415 383.909 151.399 383.64C145.383 383.371 139.578 381.654 133.591 381.109C132.761 381.036 131.916 380.978 131.079 380.956C132.316 386.224 135.239 390.946 139.406 394.406C143.572 397.866 148.754 399.875 154.166 400.129Z" fill="black"/>
<path opacity="0.1" d="M214.66 440.331C218.913 440.53 223.145 439.638 226.955 437.74C230.764 435.841 234.023 432.999 236.42 429.486C238.817 425.972 240.272 421.904 240.648 417.669C241.023 413.434 240.305 409.173 238.564 405.294C236.511 406.655 234.727 408.381 233.298 410.385C231.36 413.113 230.151 416.255 227.886 418.772C223.684 423.449 216.619 425.1 210.247 424.947C204.078 424.816 198.135 423.303 192.002 422.83C193.521 427.719 196.51 432.022 200.564 435.153C204.619 438.285 209.541 440.093 214.66 440.331Z" fill="black"/>
<path opacity="0.1" d="M202.359 488.643C204.864 493.519 208.912 497.433 213.874 499.775C218.836 502.118 224.433 502.758 229.797 501.597C235.16 500.436 239.99 497.539 243.535 493.355C247.08 489.171 249.142 483.934 249.401 478.459C249.575 475.018 249.021 471.578 247.777 468.364C245.726 469.709 243.886 471.348 242.314 473.23C239.947 476.139 238.381 479.383 235.643 482.074C230.545 487.064 222.322 489.13 215.002 489.348C210.778 489.363 206.556 489.127 202.359 488.643Z" fill="black"/>
<path d="M399.478 551.116L303.34 570.755L301.155 570.537L216.67 562.027V455.104L320.091 437.647L395.108 446.375L395.129 446.848L395.137 447.081L399.478 551.116Z" fill="#73161F"/>
<path opacity="0.1" d="M399.478 551.116L303.34 570.755L301.155 570.537V460.923L395.129 446.848L399.478 551.116Z" fill="black"/>
<path opacity="0.05" d="M395.137 447.081L395.108 447.103L301.155 460.923L216.67 455.104L320.091 437.647L395.108 446.375L395.129 446.848L395.137 447.081Z" fill="black"/>
<path d="M505.083 555.48L408.946 575.119L406.761 574.901L322.276 566.391V459.468L425.697 442.011L500.713 450.739L500.735 451.212L500.743 451.445L505.083 555.48Z" fill="#3F3D56"/>
<path opacity="0.1" d="M505.083 555.48L408.946 575.119L406.761 574.901V465.287L500.735 451.212L505.083 555.48Z" fill="black"/>
<path opacity="0.05" d="M500.743 451.445L500.713 451.467L406.761 465.287L322.276 459.468L425.697 442.011L500.713 450.739L500.735 451.212L500.743 451.445Z" fill="black"/>
<path d="M438.807 450.739L342.669 470.378L340.484 470.16L255.999 461.65V354.727L359.42 337.27L434.437 345.999L434.459 346.471L434.466 346.704L438.807 450.739Z" fill="#3F3D56"/>
<path opacity="0.1" d="M438.807 450.739L342.669 470.378L340.484 470.16V360.546L434.459 346.471L438.807 450.739Z" fill="black"/>
<path opacity="0.05" d="M434.466 346.704L434.437 346.726L340.484 360.546L255.999 354.727L359.42 337.27L434.437 345.999L434.459 346.471L434.466 346.704Z" fill="black"/>
<path d="M493.43 455.22L443.257 465.476L442.113 465.359L398.021 460.915V405.112L451.996 395.998L491.151 400.558L491.165 400.806V400.922L493.43 455.22Z" fill="#3F3D56"/>
<path opacity="0.1" d="M493.43 455.22L443.257 465.476L442.113 465.359V408.152L491.165 400.806L493.43 455.22Z" fill="black"/>
<path opacity="0.05" d="M491.165 400.922L491.151 400.937L442.113 408.152L398.021 405.112L451.996 395.998L491.151 400.558L491.165 400.806V400.922Z" fill="black"/>
<path d="M358.692 346.842L308.518 357.091L307.375 356.982L263.283 352.538V296.734L317.258 287.62L356.412 292.181L356.427 292.428V292.544L358.692 346.842Z" fill="#3F3D56"/>
<path opacity="0.1" d="M358.692 346.842L308.518 357.091L307.375 356.982V299.774L356.427 292.428L358.692 346.842Z" fill="black"/>
<path opacity="0.05" d="M356.427 292.544L356.412 292.559L307.375 299.774L263.283 296.734L317.258 287.62L356.412 292.181L356.427 292.428V292.544Z" fill="black"/>
<path d="M446.818 344.66L396.644 354.909L395.501 354.8L351.409 350.355V294.552L405.384 285.438L444.538 289.998L444.553 290.246V290.362L446.818 344.66Z" fill="#73161F"/>
<path opacity="0.1" d="M446.818 344.66L396.644 354.909L395.501 354.8V297.592L444.553 290.246L446.818 344.66Z" fill="black"/>
<path opacity="0.05" d="M444.553 290.362L444.538 290.377L395.501 297.592L351.409 294.552L405.384 285.438L444.538 289.998L444.553 290.246V290.362Z" fill="black"/>
<path d="M473.037 288.653L422.864 298.901L421.72 298.792L377.628 294.348V238.545L431.604 229.431L470.758 233.991L470.772 234.239V234.355L473.037 288.653Z" fill="#3F3D56"/>
<path opacity="0.1" d="M473.037 288.653L422.864 298.901L421.72 298.792V241.585L470.772 234.239L473.037 288.653Z" fill="black"/>
<path opacity="0.05" d="M470.772 234.355L470.758 234.369L421.72 241.585L377.628 238.545L431.604 229.431L470.758 233.991L470.772 234.239V234.355Z" fill="black"/>
<path d="M507.21 174.573C506.678 179.3 503.066 183.112 501.726 187.665C499.716 194.539 503.182 201.922 507.96 207.304C511.811 211.581 516.473 215.052 521.676 217.517C526.879 219.981 532.52 221.39 538.273 221.662C539.963 221.808 541.665 221.622 543.283 221.117C544.725 220.531 546.024 219.643 547.093 218.513C550.676 214.912 552.606 209.93 553.371 204.904C554.135 199.878 553.844 194.764 553.545 189.695C553.545 188.645 553.353 187.605 552.977 186.625C552.49 185.693 551.818 184.869 551.004 184.203C548.42 181.832 545.574 179.765 542.519 178.042C541.208 177.315 539.802 176.587 538.965 175.329C538.39 174.327 538.016 173.223 537.865 172.078L536.925 167.306C536.759 165.93 536.289 164.609 535.549 163.437C533.896 161.211 530.727 160.905 527.952 160.796L517.756 160.396C514.588 160.273 510.422 159.363 507.327 159.989C504.413 160.563 505.397 163.226 505.921 165.64C506.679 168.561 507.112 171.557 507.21 174.573Z" fill="#FFC0C6"/>
<path opacity="0.1" d="M507.21 174.573C506.678 179.3 503.066 183.112 501.726 187.665C499.716 194.539 503.182 201.922 507.96 207.304C511.811 211.581 516.473 215.052 521.676 217.517C526.879 219.981 532.52 221.39 538.273 221.662C539.963 221.808 541.665 221.622 543.283 221.117C544.725 220.531 546.024 219.643 547.093 218.513C550.676 214.912 552.606 209.93 553.371 204.904C554.135 199.878 553.844 194.764 553.545 189.695C553.545 188.645 553.353 187.605 552.977 186.625C552.49 185.693 551.818 184.869 551.004 184.203C548.42 181.832 545.574 179.765 542.519 178.042C541.208 177.315 539.802 176.587 538.965 175.329C538.39 174.327 538.016 173.223 537.865 172.078L536.925 167.306C536.759 165.93 536.289 164.609 535.549 163.437C533.896 161.211 530.727 160.905 527.952 160.796L517.756 160.396C514.588 160.273 510.422 159.363 507.327 159.989C504.413 160.563 505.397 163.226 505.921 165.64C506.679 168.561 507.112 171.557 507.21 174.573Z" fill="black"/>
<path d="M571.964 387.517L567.638 434.883C566.509 447.306 565.359 459.781 563.145 472.044C562.416 476.27 561.484 480.474 560.421 484.642C557.464 496.214 553.174 507.525 551.79 519.388C551.746 519.73 551.71 520.116 551.674 520.428C551.39 523.047 551.142 525.695 550.217 528.139C549.489 529.95 548.462 531.601 547.712 533.39C546.255 536.969 546.022 540.926 545.84 544.803C540.59 541.843 534.84 539.87 528.877 538.984C525.964 538.554 522.796 538.256 520.866 536.074C518.681 533.703 518.936 530.073 519.3 526.887C520.446 516.995 521.587 507.108 522.723 497.225C523.102 492.973 523.833 488.759 524.908 484.627C525.301 483.253 525.775 481.9 526.255 480.547C526.918 478.685 527.588 476.823 528.091 474.91C528.788 471.836 529.27 468.718 529.533 465.578C530.705 455.627 532.118 445.699 533.357 435.756L533.422 435.232C535.279 420.161 536.692 405.017 536.284 389.837C536.226 387.589 536.131 385.342 535.986 383.087C535.782 379.821 535.483 378.09 538.171 376.046C541.164 373.791 545.104 372.213 548.527 370.736C550.37 369.936 570.661 362.735 571.105 364.321C572.047 367.689 572.537 371.167 572.562 374.664C572.603 378.956 572.403 383.247 571.964 387.517Z" fill="#605D82"/>
<path opacity="0.1" d="M563.145 472.044C562.416 476.27 561.484 480.474 560.421 484.642C557.464 496.214 553.174 507.525 551.79 519.388C551.746 519.73 551.71 520.116 551.674 520.428C542.628 507.525 535.01 493.647 526.183 480.605C526.845 478.743 527.515 476.881 528.018 474.968C528.742 471.877 529.248 468.739 529.533 465.578C530.705 455.627 532.118 445.699 533.357 435.756L533.422 435.232C533.933 437.342 534.666 439.392 535.607 441.349C541.536 453.38 555.621 459.461 562.511 470.975C562.739 471.334 562.95 471.69 563.145 472.044Z" fill="black"/>
<path d="M489.745 366.27C490.044 375.915 491.588 385.48 493.132 395.008L496.314 414.647C498.055 425.412 499.876 436.388 504.974 446.026C508.79 453.242 514.282 459.395 519.256 465.861C531.477 481.762 540.662 499.778 552.249 516.144C555.621 520.901 560.435 526.051 566.182 525.054C569.954 524.407 572.693 521.265 575.65 518.85C579.146 515.999 583.355 513.911 586.108 510.333C588.861 506.754 589.4 500.819 585.671 498.273C584.397 497.407 582.846 497.08 581.403 496.527C575.628 494.345 571.884 488.701 569.51 482.998C567.136 477.296 565.686 471.178 562.518 465.876C555.628 454.362 541.536 448.281 535.607 436.243C532.286 429.508 531.965 421.696 531.718 414.226L531.07 395.089C530.997 392.994 530.946 390.819 531.798 388.906C534.063 383.814 540.909 383.334 546.459 382.687C552.753 381.953 558.85 380.033 564.426 377.028C567.624 375.304 570.741 373.107 572.438 369.907C573.997 366.998 574.208 363.572 574.39 360.269L576.313 325.581C576.48 322.599 576.626 319.508 575.584 316.715C572.94 309.688 564.055 307.39 556.546 307.724C542.577 308.35 529.686 314.351 516.489 318.409C513.219 319.413 509.934 320.315 506.562 320.992C503.649 321.581 500.007 321.341 497.21 322.286C492.199 323.974 492.323 334.928 491.617 339.467C490.159 348.324 489.532 357.297 489.745 366.27Z" fill="#605D82"/>
<path d="M564.288 526.524C565.519 527.768 565.92 529.586 566.24 531.303C568.02 540.829 568.946 550.495 569.008 560.186C568.928 561.09 569.107 561.999 569.525 562.805C569.874 563.283 570.344 563.659 570.887 563.896C574.448 565.591 578.578 563.227 581.549 560.63C587.048 555.822 591.702 549.363 592.015 542.068C592.095 540.191 591.884 538.293 592.212 536.438C592.692 533.688 594.302 531.295 595.715 528.895C598.132 524.804 600.087 520.456 601.541 515.933C602.08 514.231 602.444 512.093 601.104 510.907C600.635 510.535 600.099 510.256 599.524 510.085L583.428 504.121C582.03 503.604 578.563 512.5 578.017 513.475C576.669 515.853 575.329 517.199 572.627 517.752C569.925 518.305 566.59 517.504 564.011 518.879C559.641 521.199 561.819 524.043 564.288 526.524Z" fill="#535070"/>
<path d="M539.467 532.015C539.169 531.421 538.752 530.894 538.244 530.466C537.5 529.993 536.653 529.706 535.775 529.63C532.716 529.106 529.089 528.764 526.969 531.041C524.988 533.172 525.331 536.642 523.677 539.042C523.153 539.769 522.439 540.424 521.988 541.224C521.426 542.449 521.176 543.793 521.259 545.137C521.172 548.839 521.084 552.556 521.347 556.251C521.558 559.35 522.075 562.601 524.02 565.031C527.137 568.929 532.759 569.489 537.741 569.737L541.783 569.948C542.895 570.078 544.021 569.974 545.09 569.642C545.752 569.338 546.346 568.904 546.837 568.365C547.327 567.826 547.704 567.195 547.945 566.507C550.05 561.285 546.721 555.662 544.667 550.425C542.3 544.395 542.723 537.711 539.467 532.015Z" fill="#535070"/>
<path d="M506.045 147.915C505.993 147.385 506.07 146.851 506.27 146.358C506.86 145.318 508.404 145.631 509.57 145.892C514.253 147.071 519.191 146.002 524.02 146.278C528.848 146.554 534.281 148.962 535.25 153.69C538.753 151.214 541.772 148.117 544.157 144.554C545.498 142.554 546.663 140.263 546.481 137.862C546.219 134.4 543.313 131.811 540.654 129.614L532.643 123.068C531.587 122.101 530.369 121.328 529.045 120.784C527.195 120.151 525.17 120.456 523.218 120.456C517.392 120.456 511.143 117.802 505.95 120.456C503.765 121.569 502.141 123.482 500.568 125.344L493.408 133.811C492.867 134.351 492.471 135.019 492.258 135.753C492.054 136.786 492.585 137.804 492.775 138.844C493.11 140.735 492.294 142.758 492.92 144.576C493.962 147.587 497.633 148.016 499.876 149.748C500.706 150.388 502.017 152.577 503.015 152.548C504.77 152.512 505.994 149.311 506.045 147.915Z" fill="#3F3D56"/>
<path d="M518.193 172.885C530.863 172.885 541.135 162.627 541.135 149.973C541.135 137.319 530.863 127.061 518.193 127.061C505.523 127.061 495.251 137.319 495.251 149.973C495.251 162.627 505.523 172.885 518.193 172.885Z" fill="#FFC0C6"/>
<path d="M523.568 200.11C522.791 197.89 521.327 195.973 519.389 194.637C517.45 193.301 515.136 192.614 512.782 192.677C512.106 192.805 511.407 192.716 510.786 192.422C510.434 192.154 510.152 191.804 509.963 191.404C508.572 188.896 507.452 186.248 506.62 183.505C506.256 182.29 505.753 180.857 504.522 180.544C503.532 180.29 502.52 180.93 501.857 181.708C501.269 182.543 500.632 183.342 499.949 184.101C497.035 186.676 491.937 184.327 488.886 186.69C488.383 187.076 487.968 187.571 487.429 187.927C486.905 188.246 486.338 188.491 485.747 188.654C479.823 190.579 474.016 192.845 468.354 195.441C470.394 207.69 472.477 220.171 477.254 231.627C479.527 237.083 482.098 242.429 483.918 248.051C487.953 260.511 488.128 273.844 488.179 286.944C488.179 295.905 488.179 305.055 485.266 313.536C484.61 315.456 483.809 317.362 483.627 319.355C483.445 321.348 484.042 323.603 485.681 324.796C486.63 325.421 487.718 325.803 488.849 325.909C493.882 326.636 498.951 325.312 503.903 324.163C517.181 321.093 530.727 319.333 544.238 317.617L566.888 314.707C568.513 314.594 570.103 314.182 571.578 313.492C575.723 311.23 576.116 305.004 573.538 301.047C572.307 299.149 570.566 297.592 569.525 295.585C568.483 293.577 568.403 290.755 570.187 289.366C573.829 286.529 572.737 281.27 572.911 276.673C573.397 263.813 573.331 250.963 572.715 238.123C572.529 235.46 572.485 232.789 572.584 230.122C572.838 225.597 573.96 221.168 575.082 216.767L581.964 189.709C580.165 186.872 576.72 185.068 573.465 184.254C570.209 183.439 566.808 183.199 563.596 182.203C557.041 180.166 551.157 175.002 544.289 175.482C543.768 175.491 543.255 175.615 542.788 175.845C541.244 176.726 541.485 178.951 541.39 180.726C541.171 184.661 538.273 187.942 535.083 190.247C531.893 192.553 528.236 194.226 525.301 196.852C524.792 197.236 524.372 197.726 524.073 198.289C523.773 198.852 523.601 199.474 523.568 200.11Z" fill="#3F3D56"/>
<path d="M432.667 225.779C431.147 226.766 429.532 227.597 427.845 228.26C426.243 228.892 424.532 229.394 423.221 230.5C422.572 231.062 422.027 231.734 421.611 232.486C420.835 233.861 420.442 235.419 420.475 236.998C420.507 238.576 420.963 240.117 421.795 241.46C422.626 242.802 423.804 243.897 425.204 244.631C426.603 245.364 428.175 245.709 429.754 245.629C431.858 245.52 433.847 244.669 435.777 243.833L451.96 236.799C454.698 235.613 457.655 234.231 458.952 231.54C459.1 231.288 459.157 230.992 459.112 230.704C458.987 230.386 458.748 230.127 458.442 229.976C454.795 227.607 451.605 224.601 449.025 221.102C448.362 220.2 447.568 218.076 446.607 217.531C443.184 215.632 435.413 224.004 432.667 225.779Z" fill="#FFC0C6"/>
<path d="M605.656 220.069L611.621 226.878C612.903 228.332 614.185 229.787 615.35 231.358C618.218 235.302 620.518 239.629 622.182 244.211C623.478 247.608 624.556 251.23 624.105 254.838C623.802 256.687 623.301 258.499 622.612 260.242C621.519 263.593 620.162 266.852 618.555 269.989C617.212 272.369 615.696 274.647 614.017 276.804C609.397 282.918 604.342 288.691 598.89 294.079C596.851 296.094 595.977 299.36 595.11 302.08C593.472 307.106 589.575 311.027 585.81 314.736C584.599 316.015 583.259 317.165 581.811 318.169C579.644 319.566 577.108 320.286 574.528 320.235C573.403 320.242 572.288 320.011 571.258 319.559C568.68 318.337 567.369 315.362 567.099 312.525C566.861 309.947 567.293 307.352 568.352 304.99C571.775 297.418 580.566 294.137 586.778 288.609C590.42 285.372 593.209 281.299 595.962 277.277C597.827 274.763 599.385 272.035 600.602 269.152C601.986 265.45 601.447 261.071 602.663 257.318C603.173 255.725 604.12 254.292 604.637 252.714C605.154 251.135 605.329 249.266 604.36 247.906C603.634 247.036 602.707 246.357 601.658 245.927C597.689 243.92 593.246 241.33 592.488 236.944C592.185 234.515 592.821 232.062 594.266 230.085C595.703 228.133 597.384 226.373 599.269 224.848C600.995 223.292 603.916 221.568 605.656 220.069Z" fill="#FFC0C6"/>
<path d="M428.836 235.279C427.787 233.155 426.469 230.987 424.342 229.933C423.307 229.487 422.192 229.257 421.065 229.257C419.938 229.257 418.822 229.487 417.787 229.933C415.727 230.822 413.796 231.987 412.048 233.395L406.906 237.184C405.741 237.948 404.71 238.899 403.855 239.999C403.039 241.334 402.499 242.818 402.267 244.363C401.539 247.906 400.949 251.55 401.459 255.136C402.274 260.955 405.77 265.988 409.616 270.41C412.019 273.16 414.991 275.938 418.647 276.062C420.227 276.113 421.982 275.487 422.638 274.055C422.866 273.485 422.987 272.879 422.995 272.265C423.388 265.806 421.072 259.5 418.377 253.616C417.649 252.015 416.862 250.357 416.921 248.604C416.898 248.306 416.975 248.01 417.139 247.76C417.37 247.518 417.68 247.366 418.013 247.331C421.706 246.604 428.071 249.47 430.657 245.375C432.332 242.669 430.03 237.686 428.836 235.279Z" fill="#FFC0C6"/>
<path d="M504.836 140.706C504.79 140.176 504.87 139.643 505.069 139.15C505.659 138.102 507.203 138.422 508.368 138.684C513.051 139.863 517.989 138.793 522.818 139.07C527.647 139.346 533.072 141.754 534.048 146.482C537.548 144.002 540.567 140.906 542.956 137.346C544.296 135.338 545.461 133.047 545.279 130.647C545.017 127.185 542.104 124.595 539.453 122.406L531.441 115.859C530.388 114.893 529.173 114.12 527.85 113.576C525.993 112.943 523.976 113.248 522.024 113.248C516.197 113.248 509.948 110.593 504.756 113.248C502.571 114.361 500.947 116.274 499.373 118.136L492.207 126.603C491.668 127.144 491.275 127.812 491.063 128.545C490.859 129.578 491.391 130.596 491.58 131.636C491.915 133.527 491.1 135.549 491.726 137.36C492.768 140.379 496.438 140.808 498.681 142.539C499.512 143.179 500.823 145.369 501.82 145.34C503.547 145.303 504.77 142.103 504.836 140.706Z" fill="#3F3D56"/>
<path d="M456.111 203.493C455.187 204.092 454.373 204.848 453.708 205.726C452.87 206.999 452.696 208.635 451.975 209.944C450.431 212.81 446.811 213.836 444.56 216.185C444.195 216.506 443.941 216.934 443.832 217.407C443.818 218.047 444.032 218.671 444.436 219.167L455.318 236.246C458.959 236.566 462.411 234.297 466.038 234.602C467.386 234.711 468.777 235.177 470.073 234.777C471 234.365 471.869 233.834 472.659 233.198C474.844 231.831 477.699 231.671 479.512 229.874C481.326 228.078 481.479 225.437 481.457 222.986C481.489 220.859 481.272 218.735 480.809 216.658C479.206 210.112 474.188 205.064 471.042 199.259C469.505 196.43 468.675 194.779 465.434 196.721C462.193 198.663 459.178 201.252 456.111 203.493Z" fill="#3F3D56"/>
<path d="M588.235 194.859C590.28 196.185 592.124 197.797 593.712 199.645C595.365 201.776 596.305 204.395 597.9 206.577C599.495 208.759 601.541 210.33 603.289 212.279C605.948 215.232 607.747 218.826 609.509 222.397C605.195 228.004 600.493 233.302 595.438 238.254C594.874 238.916 594.131 239.401 593.297 239.65C592.732 239.711 592.16 239.63 591.634 239.416C591.108 239.201 590.643 238.859 590.282 238.421C589.495 237.606 588.942 236.588 588.191 235.737C586.424 233.917 584.068 232.78 581.542 232.529C579.036 232.285 576.515 232.249 574.004 232.42C573.453 232.485 572.894 232.392 572.394 232.151C572.022 231.896 571.722 231.55 571.52 231.147C568.607 226.143 569.517 219.858 570.559 214.141L572.94 201.049C573.288 198.549 573.956 196.104 574.929 193.775C575.832 191.848 577.842 188.574 580.333 189.156C582.824 189.738 586.13 193.346 588.235 194.859Z" fill="#3F3D56"/>
<path d="M380.541 290.835L330.368 301.084L329.224 300.974L285.132 296.53V240.727L339.107 231.613L378.262 236.173L378.276 236.421V236.537L380.541 290.835Z" fill="#73161F"/>
<path opacity="0.1" d="M380.541 290.835L330.368 301.084L329.224 300.974V243.767L378.276 236.421L380.541 290.835Z" fill="black"/>
<path opacity="0.05" d="M378.276 236.537L378.262 236.552L329.224 243.767L285.132 240.727L339.107 231.613L378.262 236.173L378.276 236.421V236.537Z" fill="black"/>
<path d="M406.761 235.555L356.587 245.811L355.444 245.695L311.351 241.25V185.447L365.327 176.333L404.481 180.893L404.496 181.141V181.257L406.761 235.555Z" fill="#3F3D56"/>
<path opacity="0.1" d="M406.761 235.555L356.587 245.811L355.444 245.695V188.487L404.496 181.141L406.761 235.555Z" fill="black"/>
<path opacity="0.05" d="M404.496 181.257L404.481 181.272L355.444 188.487L311.351 185.447L365.327 176.333L404.481 180.893L404.496 181.141V181.257Z" fill="black"/>
</g>
<defs>
<clipPath id="clip0">
<rect width="691.587" height="511.812" fill="white" transform="translate(85.4133 68.1805)"/>
</clipPath>
</defs>
</svg>
