<svg width="305" height="235" viewBox="0 0 305 235" fill="none" xmlns="http://www.w3.org/2000/svg">
<path opacity="0.1" d="M161.873 218.375C209.069 218.375 247.328 214.811 247.328 210.415C247.328 206.019 209.069 202.455 161.873 202.455C114.678 202.455 76.4182 206.019 76.4182 210.415C76.4182 214.811 114.678 218.375 161.873 218.375Z" fill="#D5AD46"/>
<path d="M219.878 153.741C219.878 153.741 231.858 132.549 249.911 126.448C257.482 123.884 264.092 119.064 268.612 112.478C270.751 109.347 272.599 106.027 274.132 102.559" stroke="#535461" stroke-width="2" stroke-miterlimit="10"/>
<path d="M285.464 98.6423C283.407 100.634 273.832 102.694 273.832 102.694C273.832 102.694 276.184 93.2017 278.238 91.2072C279.225 90.2502 280.553 89.7242 281.928 89.7447C283.304 89.7652 284.615 90.3307 285.573 91.3167C286.532 92.3026 287.058 93.6283 287.038 95.0022C287.017 96.376 286.451 97.6854 285.464 98.6423Z" fill="#D5AD46"/>
<path d="M280.049 115.825C277.238 116.38 268.081 112.913 268.081 112.913C268.081 112.913 275.22 106.218 278.028 105.66C278.702 105.511 279.4 105.498 280.08 105.622C280.76 105.746 281.408 106.004 281.987 106.381C282.565 106.758 283.063 107.247 283.449 107.819C283.836 108.391 284.105 109.034 284.24 109.711C284.374 110.388 284.372 111.085 284.233 111.761C284.095 112.437 283.822 113.079 283.432 113.648C283.041 114.218 282.541 114.704 281.96 115.077C281.379 115.451 280.729 115.705 280.049 115.825Z" fill="#D5AD46"/>
<path d="M260.317 134.417C257.614 133.481 251.458 125.872 251.458 125.872C251.458 125.872 261.005 123.689 263.711 124.625C264.37 124.835 264.98 125.175 265.506 125.624C266.032 126.074 266.462 126.623 266.772 127.241C267.082 127.859 267.265 128.533 267.31 129.222C267.355 129.912 267.262 130.603 267.036 131.256C266.809 131.909 266.454 132.511 265.992 133.025C265.53 133.539 264.969 133.955 264.343 134.25C263.717 134.544 263.038 134.711 262.347 134.74C261.656 134.768 260.966 134.659 260.317 134.417Z" fill="#D5AD46"/>
<path d="M242.235 145.128C239.409 144.663 232.057 138.196 232.057 138.196C232.057 138.196 241.096 134.435 243.923 134.897C244.595 135.008 245.238 135.25 245.817 135.609C246.395 135.968 246.897 136.437 247.294 136.99C247.691 137.543 247.975 138.168 248.13 138.831C248.284 139.493 248.307 140.179 248.196 140.851C248.085 141.522 247.843 142.165 247.484 142.742C247.124 143.32 246.654 143.821 246.101 144.218C245.547 144.614 244.921 144.897 244.257 145.052C243.594 145.207 242.907 145.229 242.235 145.119V145.128Z" fill="#D5AD46"/>
<path d="M260.095 105.504C260.095 108.366 265.279 116.665 265.279 116.665C265.279 116.665 270.468 108.369 270.471 105.507C270.439 104.155 269.878 102.869 268.908 101.924C267.939 100.979 266.638 100.449 265.283 100.449C263.928 100.449 262.627 100.979 261.658 101.924C260.689 102.869 260.128 104.155 260.095 105.507V105.504Z" fill="#D5AD46"/>
<path d="M239.096 118.29C239.952 121.02 247.382 127.39 247.382 127.39C247.382 127.39 249.851 117.924 248.995 115.195C248.584 113.883 247.668 112.787 246.448 112.149C245.228 111.511 243.804 111.384 242.49 111.794C241.176 112.204 240.079 113.119 239.44 114.338C238.801 115.556 238.673 116.978 239.084 118.29H239.096Z" fill="#D5AD46"/>
<path d="M220.392 133.524C220.773 136.361 227.023 143.892 227.023 143.892C227.023 143.892 231.057 134.981 230.675 132.144C230.492 130.782 229.775 129.549 228.681 128.715C227.587 127.882 226.206 127.516 224.843 127.699C223.479 127.882 222.244 128.598 221.409 129.691C220.575 130.783 220.209 132.162 220.392 133.524Z" fill="#D5AD46"/>
<path opacity="0.25" d="M285.464 98.6423C283.407 100.634 273.832 102.694 273.832 102.694C273.832 102.694 276.184 93.2017 278.238 91.2072C279.225 90.2502 280.553 89.7242 281.928 89.7447C283.304 89.7652 284.615 90.3307 285.573 91.3167C286.532 92.3026 287.058 93.6283 287.038 95.0022C287.017 96.376 286.451 97.6854 285.464 98.6423Z" fill="black"/>
<path opacity="0.25" d="M280.049 115.825C277.238 116.38 268.081 112.913 268.081 112.913C268.081 112.913 275.22 106.218 278.028 105.66C278.702 105.511 279.4 105.498 280.08 105.622C280.76 105.746 281.408 106.004 281.987 106.381C282.565 106.758 283.063 107.247 283.449 107.819C283.836 108.391 284.105 109.034 284.24 109.711C284.374 110.388 284.372 111.085 284.233 111.761C284.095 112.437 283.822 113.079 283.432 113.648C283.041 114.218 282.541 114.704 281.96 115.077C281.379 115.451 280.729 115.705 280.049 115.825Z" fill="black"/>
<path opacity="0.25" d="M260.317 134.417C257.614 133.481 251.458 125.872 251.458 125.872C251.458 125.872 261.005 123.689 263.711 124.625C264.37 124.835 264.98 125.175 265.506 125.624C266.032 126.074 266.462 126.623 266.772 127.241C267.082 127.859 267.265 128.533 267.31 129.222C267.355 129.912 267.262 130.603 267.036 131.256C266.809 131.909 266.454 132.511 265.992 133.025C265.53 133.539 264.969 133.955 264.343 134.25C263.717 134.544 263.038 134.711 262.347 134.74C261.656 134.768 260.966 134.659 260.317 134.417Z" fill="black"/>
<path opacity="0.25" d="M242.235 145.128C239.409 144.663 232.057 138.196 232.057 138.196C232.057 138.196 241.096 134.435 243.923 134.897C244.595 135.008 245.238 135.25 245.817 135.609C246.395 135.968 246.897 136.437 247.294 136.99C247.691 137.543 247.975 138.168 248.13 138.831C248.284 139.493 248.307 140.179 248.196 140.851C248.085 141.522 247.843 142.165 247.484 142.742C247.124 143.32 246.654 143.821 246.101 144.218C245.547 144.614 244.921 144.897 244.257 145.052C243.594 145.207 242.907 145.229 242.235 145.119V145.128Z" fill="black"/>
<path opacity="0.25" d="M260.095 105.504C260.095 108.366 265.279 116.665 265.279 116.665C265.279 116.665 270.468 108.369 270.471 105.507C270.439 104.155 269.878 102.869 268.908 101.924C267.939 100.979 266.638 100.449 265.283 100.449C263.928 100.449 262.627 100.979 261.658 101.924C260.689 102.869 260.128 104.155 260.095 105.507V105.504Z" fill="black"/>
<path opacity="0.25" d="M239.096 118.29C239.952 121.02 247.382 127.39 247.382 127.39C247.382 127.39 249.851 117.924 248.995 115.195C248.584 113.883 247.668 112.787 246.448 112.149C245.228 111.511 243.804 111.384 242.49 111.794C241.176 112.204 240.079 113.119 239.44 114.338C238.801 115.556 238.673 116.978 239.084 118.29H239.096Z" fill="black"/>
<path opacity="0.25" d="M220.392 133.524C220.773 136.361 227.023 143.892 227.023 143.892C227.023 143.892 231.057 134.981 230.675 132.144C230.492 130.782 229.775 129.549 228.681 128.715C227.587 127.882 226.206 127.516 224.843 127.699C223.479 127.882 222.244 128.598 221.409 129.691C220.575 130.783 220.209 132.162 220.392 133.524Z" fill="black"/>
<path d="M220.569 153.319C220.569 153.319 222.921 129.097 236.934 116.215C242.847 110.848 246.857 103.71 248.364 95.8739C249.049 92.1478 249.391 88.367 249.385 84.5787" stroke="#535461" stroke-width="2" stroke-miterlimit="10"/>
<path d="M258.17 76.4119C257.098 79.0662 249.181 84.8098 249.181 84.8098C249.181 84.8098 247.475 75.1792 248.548 72.5128C249.102 71.2991 250.103 70.3456 251.344 69.8511C252.585 69.3566 253.969 69.3591 255.207 69.8582C256.446 70.3573 257.444 71.3145 257.994 72.5303C258.544 73.7461 258.602 75.1269 258.158 76.3849L258.17 76.4119Z" fill="#D5AD46"/>
<path d="M260.188 94.3053C257.846 95.9519 248.067 96.4888 248.067 96.4888C248.067 96.4888 251.878 87.491 254.221 85.8325C255.346 85.0594 256.732 84.761 258.077 85.0021C259.421 85.2432 260.616 86.0044 261.402 87.1203C262.188 88.2362 262.501 89.6168 262.274 90.962C262.047 92.3073 261.297 93.5087 260.188 94.3053Z" fill="#D5AD46"/>
<path d="M249.704 119.283C246.851 119.523 238.138 115.057 238.138 115.057C238.138 115.057 245.98 109.2 248.836 108.96C249.515 108.903 250.198 108.98 250.847 109.187C251.496 109.393 252.098 109.726 252.618 110.165C253.138 110.604 253.567 111.141 253.879 111.746C254.191 112.35 254.382 113.01 254.438 113.688C254.495 114.366 254.418 115.048 254.211 115.696C254.004 116.344 253.671 116.945 253.232 117.465C252.792 117.984 252.254 118.412 251.649 118.724C251.043 119.036 250.383 119.226 249.704 119.283Z" fill="#D5AD46"/>
<path d="M237.511 136.397C234.739 137.114 225.395 134.183 225.395 134.183C225.395 134.183 232.135 127.084 234.907 126.367C236.238 126.022 237.653 126.22 238.839 126.917C240.025 127.613 240.885 128.752 241.23 130.082C241.575 131.412 241.377 132.824 240.68 134.009C239.982 135.193 238.842 136.052 237.511 136.397Z" fill="#D5AD46"/>
<path d="M237.757 92.9377C238.919 95.553 247.025 101.036 247.025 101.036C247.025 101.036 248.403 91.3541 247.244 88.7387C246.687 87.4823 245.652 86.4985 244.368 86.0038C243.084 85.5092 241.656 85.5441 240.398 86.1009C239.14 86.6577 238.155 87.6908 237.66 88.9729C237.164 90.2551 237.199 91.6812 237.757 92.9377Z" fill="#D5AD46"/>
<path d="M223.75 113.135C225.642 115.282 235.021 118.098 235.021 118.098C235.021 118.098 233.435 108.447 231.546 106.296C230.638 105.262 229.356 104.631 227.982 104.541C226.607 104.451 225.254 104.91 224.218 105.816C223.183 106.723 222.55 108.004 222.46 109.376C222.37 110.748 222.83 112.1 223.738 113.135H223.75Z" fill="#D5AD46"/>
<path d="M212.833 134.63C214.334 137.069 223.101 141.427 223.101 141.427C223.101 141.427 223.173 131.646 221.674 129.208C220.954 128.037 219.798 127.199 218.46 126.88C217.122 126.56 215.711 126.785 214.539 127.504C213.366 128.223 212.528 129.378 212.208 130.714C211.888 132.051 212.113 133.459 212.833 134.63Z" fill="#D5AD46"/>
<path d="M84.6442 0V8.21194V211.585H237.03V8.21194V0H84.6442Z" fill="url(#paint0_linear)"/>
<path d="M235.694 1.85657H85.9806V9.92154H235.694V1.85657Z" fill="#F6F7F9"/>
<g opacity="0.2">
<path opacity="0.2" d="M235.694 1.85657H85.9806V9.92154H235.694V1.85657Z" fill="#D5AD46"/>
</g>
<path d="M235.694 9.92151H85.9806V209.728H235.694V9.92151Z" fill="#F6F7F9"/>
<path d="M89.9179 7.25521C90.6742 7.25521 91.2874 6.64289 91.2874 5.88755C91.2874 5.13222 90.6742 4.5199 89.9179 4.5199C89.1615 4.5199 88.5484 5.13222 88.5484 5.88755C88.5484 6.64289 89.1615 7.25521 89.9179 7.25521Z" fill="#F6F7F9"/>
<path d="M93.6299 7.25521C94.3863 7.25521 94.9994 6.64289 94.9994 5.88755C94.9994 5.13222 94.3863 4.5199 93.6299 4.5199C92.8736 4.5199 92.2604 5.13222 92.2604 5.88755C92.2604 6.64289 92.8736 7.25521 93.6299 7.25521Z" fill="#F6F7F9"/>
<path d="M97.342 7.25521C98.0983 7.25521 98.7115 6.64289 98.7115 5.88755C98.7115 5.13222 98.0983 4.5199 97.342 4.5199C96.5856 4.5199 95.9725 5.13222 95.9725 5.88755C95.9725 6.64289 96.5856 7.25521 97.342 7.25521Z" fill="#F6F7F9"/>
<g opacity="0.2">
<path opacity="0.2" d="M208.97 22.2394H112.701V26.0034H208.97V22.2394Z" fill="#D5AD46"/>
</g>
<path d="M208.97 22.2394H196.18V26.0034H208.97V22.2394Z" fill="#D5AD46"/>
<g opacity="0.2">
<path opacity="0.2" d="M159.486 99.1611H98.9037V142.497H159.486V99.1611Z" fill="#D5AD46"/>
</g>
<g opacity="0.2">
<path opacity="0.2" d="M159.486 42.9463H98.9037V86.2824H159.486V42.9463Z" fill="#D5AD46"/>
</g>
<g opacity="0.2">
<path opacity="0.2" d="M159.486 154.644H98.9037V197.98H159.486V154.644Z" fill="#D5AD46"/>
</g>
<g opacity="0.2">
<path opacity="0.2" d="M222.77 99.1611H162.189V142.497H222.77V99.1611Z" fill="#D5AD46"/>
</g>
<g opacity="0.2">
<path opacity="0.2" d="M222.77 42.9463H162.189V86.2824H222.77V42.9463Z" fill="#D5AD46"/>
</g>
<g opacity="0.2">
<path opacity="0.2" d="M222.77 154.644H162.189V197.98H222.77V154.644Z" fill="#D5AD46"/>
</g>
<path d="M177.676 51.3201C177.676 51.3201 177.127 49.9494 180.833 50.2913C184.539 50.6332 195.179 51.8149 199.78 50.7802C204.381 49.7455 207.123 49.4156 206.85 50.7802C206.577 52.1449 198.888 55.2281 198.888 55.2281L188.933 56.2568L181.59 55.0901L177.646 52.7597L177.676 51.3201Z" fill="#D5AD46"/>
<path opacity="0.1" d="M206.859 50.7803C206.583 52.145 198.898 55.2282 198.898 55.2282L188.942 56.2569L181.599 55.0932L177.658 52.7628L177.685 51.3232C177.647 51.2046 177.647 51.077 177.685 50.9582C177.722 50.8395 177.796 50.7353 177.896 50.6603C178.235 50.3604 179.028 50.1265 180.842 50.2944C184.551 50.6363 195.188 51.815 199.789 50.7803C203.538 49.9375 206.054 49.5626 206.697 50.1805C206.776 50.2561 206.833 50.352 206.862 50.4578C206.891 50.5635 206.89 50.6751 206.859 50.7803Z" fill="black"/>
<path d="M212.776 71.544C206.37 72.7756 200.329 75.4474 195.11 79.3571C194.846 78.6555 194.349 78.0658 193.702 77.6865C193.26 77.4127 192.777 77.2103 192.272 77.0866C191.813 76.9697 191.371 77.2486 190.966 77.6505C190.499 78.1659 190.108 78.7445 189.804 79.369C182.803 74.5702 172.183 71.508 172.183 71.508V70.5483C172.183 70.3593 172.217 70.1314 172.253 69.8734C172.289 69.6155 172.334 69.3875 172.391 69.1086C173.292 64.5318 176.854 54.0734 176.854 54.0734H177.956H180.881L188.689 55.693L197.474 55.1561L206.322 53.3176L207.469 53.0776C209.382 54.5773 211.553 65.0746 212.406 69.5435C212.514 70.1104 212.598 70.5783 212.661 70.9232C212.737 71.3131 212.776 71.544 212.776 71.544Z" fill="#D5AD46"/>
<path d="M173.637 69.5616C173.868 65.1677 177.364 55.6451 177.956 54.0645H176.854C176.854 54.0645 173.081 65.1617 172.316 69.4926C172.314 69.5035 172.314 69.5146 172.316 69.5256C172.295 69.6425 172.274 69.7565 172.259 69.8645C172.222 70.1224 172.198 70.3504 172.189 70.5393V71.4991C172.189 71.4991 182.809 74.5643 189.81 79.3601C190.114 78.7355 190.505 78.157 190.972 77.6415C188.296 75.2122 178.148 71.2531 173.637 69.5616Z" fill="#D5AD46"/>
<path d="M212.661 70.9112C212.634 70.7582 212.601 70.5813 212.565 70.3863C212.52 70.1344 212.466 69.8495 212.406 69.5315C211.553 65.0567 209.382 54.5563 207.469 53.0657L206.322 53.3056C207.018 55.1741 211.508 67.3751 211.127 69.7565C203.619 71.2561 196.008 76.1299 193.708 77.6865C194.355 78.0658 194.852 78.6556 195.116 79.3571C200.335 75.4475 206.376 72.7756 212.782 71.544C212.782 71.544 212.737 71.3131 212.661 70.9112Z" fill="#D5AD46"/>
<path opacity="0.1" d="M173.913 69.2856C174.142 64.8917 177.64 55.3691 178.232 53.7915H177.127C177.127 53.7915 173.355 64.8887 172.589 69.2166C172.589 69.2166 172.589 69.2406 172.589 69.2496C172.567 69.3696 172.549 69.4836 172.535 69.5915C172.499 69.8495 172.475 70.0774 172.466 70.2664V71.2261C172.466 71.2261 183.082 74.2884 190.086 79.0872C190.388 78.4619 190.778 77.8832 191.245 77.3686C188.569 74.9452 178.424 70.9772 173.913 69.2856Z" fill="black"/>
<path d="M173.637 69.5616C173.868 65.1677 177.364 55.6451 177.956 54.0645H176.854C176.854 54.0645 173.081 65.1617 172.316 69.4926C172.314 69.5035 172.314 69.5146 172.316 69.5256C172.295 69.6425 172.274 69.7565 172.259 69.8645C172.222 70.1224 172.198 70.3504 172.189 70.5393V71.4991C172.189 71.4991 182.809 74.5643 189.81 79.3601C190.114 78.7355 190.505 78.157 190.972 77.6415C188.296 75.2122 178.148 71.2531 173.637 69.5616Z" fill="#D5AD46"/>
<path opacity="0.1" d="M212.388 70.6353L212.292 70.1105C212.244 69.8585 212.193 69.5766 212.133 69.2557C211.283 64.7838 209.109 54.2834 207.196 52.7898L206.051 53.0327C206.748 54.9013 211.238 67.1022 210.857 69.4836C203.348 70.9832 195.735 75.857 193.438 77.4106C194.085 77.7911 194.582 78.3818 194.846 79.0842C200.062 75.1726 206.103 72.4996 212.508 71.2682C212.508 71.2682 212.463 71.0432 212.388 70.6353Z" fill="black"/>
<path d="M212.661 70.9112C212.634 70.7582 212.601 70.5813 212.565 70.3863C212.52 70.1344 212.466 69.8495 212.406 69.5315C211.553 65.0567 209.382 54.5563 207.469 53.0657L206.322 53.3056C207.018 55.1741 211.508 67.3751 211.127 69.7565C203.619 71.2561 196.008 76.1299 193.708 77.6865C194.355 78.0658 194.852 78.6556 195.116 79.3571C200.335 75.4475 206.376 72.7756 212.782 71.544C212.782 71.544 212.737 71.3131 212.661 70.9112Z" fill="#D5AD46"/>
<path opacity="0.1" d="M176.247 59.487C176.247 59.487 183.214 63.8659 184.842 57.4535L186.392 57.8674C186.392 57.8674 186.902 64.9726 175.784 60.9176L176.247 59.487Z" fill="black"/>
<path d="M176.247 58.9383C176.247 58.9383 183.214 63.3172 184.842 56.9048L186.392 57.3187C186.392 57.3187 186.902 64.4239 175.784 60.3689L176.247 58.9383Z" fill="#D5AD46"/>
<path opacity="0.1" d="M198.171 57.6605C198.171 57.6605 199.072 62.9002 208.619 60.3598L208.283 59.3701C208.283 59.3701 201.763 62.0694 199.399 57.3816L198.171 57.6605Z" fill="black"/>
<path d="M198.171 57.1117C198.171 57.1117 199.072 62.3514 208.619 59.811L208.283 58.8213C208.283 58.8213 201.763 61.5206 199.399 56.8328L198.171 57.1117Z" fill="#D5AD46"/>
<path opacity="0.1" d="M191.816 57.5915V68.5268H193.51C193.51 68.5268 195.852 67.684 195.798 62.7682C195.744 57.8525 195.387 56.5298 195.387 56.5298L191.816 57.5915Z" fill="black"/>
<path d="M191.543 57.3186V68.2538H193.236C193.236 68.2538 195.579 67.411 195.525 62.4953C195.471 57.5795 195.11 56.2568 195.11 56.2568L191.543 57.3186Z" fill="#D5AD46"/>
<path opacity="0.1" d="M207.46 53.6176C206.769 54.9013 200.498 57.0097 199.39 57.3726L199.222 57.4266C199.222 57.4266 198.825 57.5286 198.162 57.6666C196.144 58.0865 191.645 58.8663 188.251 58.1824C187.758 58.0865 187.248 57.9815 186.728 57.8825L185.527 57.6216C181.623 56.7548 177.583 55.6211 176.866 54.6223C176.866 54.6223 177.061 51.3621 177.718 51.4491C178.376 51.5361 185.719 54.6223 185.719 54.6223L185.824 54.6373C186.014 54.6613 186.443 54.7153 187.047 54.7843C189.431 55.0452 194.456 55.4591 197.159 54.7363C197.288 54.7003 197.408 54.6643 197.525 54.6223C197.729 54.5533 197.942 54.4814 198.162 54.4004C201.64 53.1707 206.847 50.9692 206.847 50.9692C206.847 50.9692 208.223 52.2049 207.46 53.6176Z" fill="black"/>
<path opacity="0.1" d="M206.859 50.7802C206.583 52.1449 198.897 55.2281 198.897 55.2281L188.942 56.2569L181.599 55.0932L177.658 52.7627L177.685 51.3231C177.647 51.2045 177.647 51.0769 177.685 50.9582C177.722 50.8394 177.796 50.7353 177.896 50.6603C179.202 51.0562 185.704 53.7885 185.704 53.7885L185.809 53.8035C185.998 53.8275 186.428 53.8815 187.032 53.9504C189.416 54.2114 194.441 54.6253 197.144 53.9025C197.273 53.8665 197.393 53.8305 197.51 53.7885C197.714 53.7225 197.927 53.6475 198.147 53.5665C201.291 52.4538 205.853 50.5463 206.697 50.1924C206.774 50.2669 206.83 50.3608 206.858 50.4642C206.887 50.5676 206.887 50.6767 206.859 50.7802Z" fill="black"/>
<path d="M207.46 53.0656C206.769 54.3493 200.498 56.4548 199.39 56.8177L199.222 56.8747C199.222 56.8747 198.825 56.9737 198.162 57.1116C196.144 57.5315 191.645 58.3113 188.251 57.6275C187.758 57.5315 187.248 57.4265 186.728 57.3276L185.527 57.0666C181.623 56.1999 177.583 55.0661 176.866 54.0674C176.866 54.0674 177.061 50.8072 177.718 50.8972C178.376 50.9872 185.719 54.0674 185.719 54.0674L185.824 54.0824C186.014 54.1064 186.443 54.1634 187.047 54.2293C189.431 54.4903 194.456 54.9042 197.159 54.1814C197.288 54.1454 197.408 54.1094 197.525 54.0674C197.729 54.0014 197.942 53.9264 198.162 53.8454C201.64 52.6158 206.847 50.4143 206.847 50.4143C206.847 50.4143 208.223 51.659 207.46 53.0656Z" fill="#D5AD46"/>
<path opacity="0.1" d="M193.005 57.6276C193.612 57.6276 194.104 57.1361 194.104 56.5298C194.104 55.9236 193.612 55.4321 193.005 55.4321C192.398 55.4321 191.906 55.9236 191.906 56.5298C191.906 57.1361 192.398 57.6276 193.005 57.6276Z" fill="black"/>
<path d="M193.005 57.3516C193.612 57.3516 194.104 56.8601 194.104 56.2539C194.104 55.6476 193.612 55.1561 193.005 55.1561C192.398 55.1561 191.906 55.6476 191.906 56.2539C191.906 56.8601 192.398 57.3516 193.005 57.3516Z" fill="#D5AD46"/>
<path opacity="0.1" d="M187.308 54.2174L187.008 57.3126L185.806 57.0517L186.107 54.0704C186.275 54.1004 186.707 54.1574 187.308 54.2174Z" fill="black"/>
<path d="M187.038 54.2174L186.737 57.3126L185.536 57.0517L185.836 54.0704C186.001 54.1004 186.437 54.1574 187.038 54.2174Z" fill="#D5AD46"/>
<path opacity="0.1" d="M199.123 56.8177L198.955 56.8747C198.955 56.8747 198.561 56.9737 197.894 57.1116L196.87 54.1754C196.999 54.1394 197.123 54.1034 197.24 54.0614C197.444 53.9954 197.657 53.9205 197.876 53.8395L199.123 56.8177Z" fill="black"/>
<path d="M199.399 56.8177L199.231 56.8747C199.231 56.8747 198.834 56.9737 198.171 57.1116L197.147 54.1754C197.276 54.1394 197.396 54.1034 197.513 54.0614C197.717 53.9954 197.93 53.9205 198.15 53.8395L199.399 56.8177Z" fill="#D5AD46"/>
<g opacity="0.5">
<path opacity="0.5" d="M121.939 48.8187C123.344 48.8279 124.721 49.2098 125.93 49.9254C125.93 49.9254 129.588 50.3693 131.582 49.9254C133.576 49.4815 134.586 47.9339 134.964 48.3748C135.342 48.8157 135.351 52.9697 135.351 52.9697L133.633 57.5645L129.753 60.4408L123.603 58.6712L121.566 53.4735L121.939 48.8187Z" fill="#D5AD46"/>
<path opacity="0.1" d="M135.351 52.9756L133.633 57.5704L129.753 60.4467L123.603 58.6772L121.566 53.4735L121.954 48.8246H122.044C123.418 48.8595 124.761 49.2413 125.948 49.9343C125.948 49.9343 129.606 50.3782 131.6 49.9343C133.495 49.5145 134.492 48.0928 134.904 48.3328C134.928 48.344 134.95 48.3604 134.967 48.3807C135.351 48.8186 135.351 52.9756 135.351 52.9756Z" fill="black"/>
<path opacity="0.1" d="M135.351 52.9757L133.633 57.5705L129.753 60.4468L123.603 58.6772L121.566 53.4735L121.954 48.8247H122.044C122.386 50.2913 123.846 54.9222 128.495 55.2491C133.276 55.582 134.634 49.9014 134.916 48.3358C134.94 48.3471 134.962 48.3635 134.979 48.3838C135.351 48.8187 135.351 52.9757 135.351 52.9757Z" fill="black"/>
<path opacity="0.5" d="M121.939 48.8197C121.939 48.8197 122.936 55.2951 128.48 55.682C134.024 56.0689 134.964 48.3759 134.964 48.3759C134.964 48.3759 143.001 51.0062 144.875 55.697C146.749 60.3878 148.145 64.1519 148.145 64.1519C148.145 64.1519 147.545 65.2016 146.869 65.3126C146.193 65.4236 141.604 68.5788 141.604 68.5788C141.604 68.5788 141.55 77.5465 142.049 78.0984C142.547 78.6503 142.382 81.0317 140.883 80.9207C139.385 80.8097 129.023 78.4853 120.161 80.4228C120.161 80.4228 116.449 81.7515 116.557 79.592C116.665 77.4326 116.833 68.9657 116.833 68.9657C116.833 68.9657 111.235 66.5303 110.905 66.5303C110.574 66.5303 109.739 66.0924 110.625 64.6498C111.511 63.2071 112.623 58.2854 112.623 58.2854C112.623 58.2854 114.845 51.2191 121.939 48.8197Z" fill="#D5AD46"/>
<path opacity="0.1" d="M139.174 60.4468C139.174 60.4468 140.838 61.6645 140.451 62.6062C140.063 63.548 139.174 60.4468 139.174 60.4468Z" fill="black"/>
<path opacity="0.1" d="M141.613 61.6166C141.458 62.1566 141.458 62.7292 141.613 63.2692V61.6166Z" fill="black"/>
<path opacity="0.1" d="M142.721 64.6548C142.721 64.6548 142.944 66.1544 142.28 66.3134L142.721 64.6548Z" fill="black"/>
<path opacity="0.1" d="M120.11 60.0599C120.11 60.0599 117.007 62.7593 118.059 63.824L120.11 60.0599Z" fill="black"/>
<path opacity="0.1" d="M118.17 66.5923C118.17 66.5923 118.119 69.4146 118.975 69.6365L118.17 66.5923Z" fill="black"/>
<path opacity="0.1" d="M127.092 76.0549C127.092 76.0549 129.195 74.6183 129.753 74.6723L127.092 76.0549Z" fill="black"/>
<path opacity="0.1" d="M129.195 77.5514C129.195 77.5514 131.471 75.9439 132.081 76.0518L129.195 77.5514Z" fill="black"/>
</g>
<g opacity="0.5">
<path opacity="0.5" d="M178.628 103.3C178.628 103.3 196.762 104.158 205.778 103.63L205.58 106.005L189.626 108.105L184.905 106.653L178.628 103.3Z" fill="#D5AD46"/>
<path opacity="0.1" d="M205.79 103.63L205.592 106.005L189.641 108.105L184.917 106.653L178.628 103.3C178.628 103.3 179.001 103.321 179.665 103.348C183.599 103.519 197.765 104.071 205.544 103.648L205.79 103.63Z" fill="black"/>
<path opacity="0.5" d="M212.067 137.407C208.565 139.507 196.411 137.473 196.411 137.473L193.041 125.476L189.275 137.68C183.926 139.594 172.892 136.823 172.892 136.823L177.187 110.429L177.929 106.791L178.628 103.3L185.434 105.346C185.434 105.346 187.479 106.731 196.002 106.335C204.526 105.939 205.778 103.636 205.778 103.636C206.153 103.744 206.511 105.067 206.871 106.71C207.394 109.11 207.925 112.187 208.553 113.204C209.622 114.913 212.067 137.407 212.067 137.407Z" fill="#D5AD46"/>
<path opacity="0.1" d="M206.883 106.968C199.285 111.134 192.744 111.02 192.744 111.02C191.125 111.218 177.929 107.052 177.929 107.052L178.628 103.564L185.434 105.609C185.434 105.609 187.479 106.995 196.002 106.599C204.526 106.203 205.778 103.9 205.778 103.9C206.165 104.005 206.523 105.325 206.883 106.968Z" fill="black"/>
<path opacity="0.1" d="M205.79 103.63L205.592 106.005L189.641 108.105L184.917 106.653L178.628 103.3C178.628 103.3 179.001 103.321 179.665 103.348L185.431 105.082C185.431 105.082 187.476 106.467 195.999 106.071C202.694 105.771 204.904 104.272 205.544 103.645L205.79 103.63Z" fill="black"/>
<path opacity="0.5" d="M206.883 106.704C199.285 110.87 192.744 110.756 192.744 110.756C191.125 110.954 177.929 106.788 177.929 106.788L178.628 103.3L185.434 105.346C185.434 105.346 187.479 106.731 196.002 106.335C204.526 105.939 205.778 103.636 205.778 103.636C206.165 103.738 206.523 105.061 206.883 106.704Z" fill="#D5AD46"/>
<path opacity="0.1" d="M194.032 110.126C194.415 110.126 194.726 109.816 194.726 109.434C194.726 109.051 194.415 108.741 194.032 108.741C193.649 108.741 193.338 109.051 193.338 109.434C193.338 109.816 193.649 110.126 194.032 110.126Z" fill="black"/>
<path opacity="0.5" d="M194.032 109.862C194.415 109.862 194.726 109.552 194.726 109.17C194.726 108.787 194.415 108.477 194.032 108.477C193.649 108.477 193.338 108.787 193.338 109.17C193.338 109.552 193.649 109.862 194.032 109.862Z" stroke="#D5AD46" stroke-miterlimit="10"/>
<path opacity="0.1" d="M176.295 121.574C176.295 121.574 177.517 125.204 178.376 125.138C179.235 125.072 176.295 121.574 176.295 121.574Z" fill="black"/>
<path opacity="0.1" d="M175.502 125.138C175.502 125.138 176.262 127.315 177.055 127.678L175.502 125.138Z" fill="black"/>
<path opacity="0.1" d="M175.502 127.414C175.502 127.414 176.703 128.932 177.415 129.294L175.502 127.414Z" fill="black"/>
<path opacity="0.1" d="M207.76 113.692C207.76 113.692 208.883 115.375 207.76 115.738V113.692Z" fill="black"/>
<path opacity="0.1" d="M208.271 116.428C206.967 114.883 207.772 118.527 207.772 118.527C207.772 118.527 208.604 116.824 208.271 116.428Z" fill="black"/>
<path opacity="0.1" d="M208.928 118.308C208.928 118.308 206.946 121.245 207.343 121.575L208.928 118.308Z" fill="black"/>
<path opacity="0.1" d="M182.707 113.755C180.277 113.755 177.743 112.658 177.601 112.592L177.709 112.349C177.758 112.373 182.608 114.475 185.233 112.898C186.224 112.298 186.779 111.242 186.887 109.748L187.152 109.769C187.038 111.353 186.437 112.469 185.368 113.123C184.555 113.571 183.635 113.79 182.707 113.755Z" fill="black"/>
<path opacity="0.5" d="M182.707 113.491C180.277 113.491 177.743 112.394 177.601 112.328L177.709 112.088C177.758 112.109 182.608 114.211 185.233 112.634C186.224 112.034 186.779 110.978 186.887 109.484L187.152 109.505C187.038 111.089 186.437 112.205 185.368 112.859C184.555 113.307 183.635 113.526 182.707 113.491Z" fill="#D5AD46"/>
<path opacity="0.1" d="M202.655 113.953C202.032 113.962 201.416 113.83 200.853 113.566C198.882 112.619 198.564 110.297 198.549 110.198L198.813 110.165C198.813 110.189 199.129 112.448 200.97 113.329C202.61 114.118 204.937 113.629 207.877 111.83L208.012 112.055C205.919 113.32 204.126 113.953 202.655 113.953Z" fill="black"/>
<path opacity="0.5" d="M202.655 113.689C202.032 113.698 201.416 113.566 200.853 113.303C198.882 112.355 198.564 110.033 198.549 109.934L198.813 109.901C198.813 109.925 199.129 112.184 200.97 113.066C202.61 113.854 204.937 113.365 207.877 111.566L208.012 111.791C205.919 113.057 204.126 113.689 202.655 113.689Z" fill="#D5AD46"/>
</g>
<path d="M123.47 103.705C123.47 103.705 126.879 108.459 129.195 107.997C131.51 107.535 131.738 107.028 133.796 103.705L135.483 107.583L133.495 112.382L131.141 115.426L126.149 114.643L124.534 109.197L123.47 103.705Z" fill="#D5AD46"/>
<path opacity="0.1" d="M135.483 107.58L133.495 112.379L131.141 115.423L126.149 114.64L124.534 109.194L123.47 103.705C123.47 103.705 123.771 104.119 124.239 104.689C125.383 106.053 127.561 108.321 129.195 107.988C131.477 107.532 131.732 107.031 133.715 103.831L133.796 103.696L135.483 107.58Z" fill="black"/>
<path opacity="0.1" d="M135.483 107.58L133.495 112.379L131.141 115.423L126.149 114.64L124.534 109.194L123.47 103.705C123.47 103.705 123.771 104.119 124.239 104.689C124.984 107.088 126.585 110.936 129.195 110.903C132.141 110.87 133.33 105.996 133.715 103.84L133.796 103.705L135.483 107.58Z" fill="black"/>
<path d="M121.668 103.564C121.668 103.564 120.512 103.426 121.113 104.857C121.713 106.287 122.822 110.993 122.269 111.962C121.716 112.931 121.993 115.561 119.59 116.071L120.281 118.791C120.281 118.791 120.419 124.79 120.143 125.668C119.866 126.547 119.818 131.388 119.912 131.895C120.005 132.402 119.96 135.725 119.59 135.866C119.221 136.007 118.99 137.617 120.191 137.893C121.392 138.169 126.519 138.31 127.444 138.586C128.369 138.862 134.928 138.586 134.928 138.586C134.928 138.586 137.7 138.217 138.394 137.986C139.087 137.755 139.226 137.203 138.994 136.142C138.763 135.08 137.7 127.375 137.931 126.406C138.162 125.437 138.21 115.978 138.21 115.978C138.21 115.978 136.408 115.378 136.408 113.623C136.408 111.869 135.715 107.163 137.147 104.212C137.147 104.212 135.991 103.42 135.808 103.561C135.625 103.702 133.88 103.195 133.88 103.195C133.88 103.195 132.979 111.224 129.21 111.269C125.441 111.314 123.762 103.195 123.762 103.195C123.762 103.195 123.795 102.457 121.668 103.564Z" fill="#D5AD46"/>
<path opacity="0.1" d="M127.119 129.312C127.119 129.312 127.897 131.205 129.195 131.481C130.492 131.757 127.119 129.312 127.119 129.312Z" fill="black"/>
<path opacity="0.1" d="M125.918 130.788C125.918 130.788 128.429 132.819 128.321 133.236L125.918 130.788Z" fill="black"/>
<path opacity="0.1" d="M120.882 118.791C120.882 118.791 122.87 120.129 122.87 121.098L120.882 118.791Z" fill="black"/>
<path opacity="0.1" d="M122.221 122.99C122.221 122.99 121.668 121.053 121.299 120.639L122.221 122.99Z" fill="black"/>
<path opacity="0.1" d="M121.299 123.728C121.299 123.728 122.131 125.389 122.221 125.851L121.299 123.728Z" fill="black"/>
<path opacity="0.1" d="M137.424 120.36C137.424 120.36 134.838 121.146 135.066 122.114L137.424 120.36Z" fill="black"/>
<path opacity="0.1" d="M135.054 129.312C135.054 129.312 138.442 125.389 137.424 125.482C136.405 125.575 135.054 129.312 135.054 129.312Z" fill="black"/>
<g opacity="0.1">
<path opacity="0.1" d="M136.405 113.623C136.405 112.814 136.258 111.374 136.24 109.769C136.222 111.611 136.405 113.315 136.405 114.223C136.405 115.939 138.126 116.548 138.207 116.575C138.207 116.2 138.207 115.975 138.207 115.975C138.207 115.975 136.405 115.378 136.405 113.623Z" fill="black"/>
<path opacity="0.1" d="M138.985 136.742C139.021 136.899 139.048 137.058 139.066 137.218C139.105 136.858 139.077 136.493 138.985 136.142C138.787 135.242 137.982 129.465 137.898 127.21C137.808 128.752 138.775 135.734 138.985 136.742Z" fill="black"/>
<path opacity="0.1" d="M119.869 130.758C119.869 129.112 119.963 126.841 120.143 126.259C120.29 125.791 120.32 123.878 120.317 122.186C120.317 123.704 120.272 125.246 120.143 125.659C119.939 126.313 119.86 129.127 119.869 130.758Z" fill="black"/>
<path opacity="0.1" d="M121.668 104.164C123.792 103.057 123.747 103.795 123.747 103.795C123.747 103.795 125.411 111.917 129.195 111.869C132.979 111.821 133.88 103.795 133.88 103.795C133.88 103.795 135.637 104.302 135.82 104.161C136.003 104.02 136.619 104.461 136.958 104.677C137.021 104.518 137.087 104.362 137.162 104.212C137.162 104.212 136.006 103.42 135.82 103.561C135.634 103.702 133.88 103.195 133.88 103.195C133.88 103.195 132.979 111.224 129.21 111.269C125.441 111.314 123.762 103.195 123.762 103.195C123.762 103.195 123.807 102.457 121.683 103.564C121.683 103.564 120.743 103.456 121.005 104.491C121.155 104.104 121.668 104.164 121.668 104.164Z" fill="black"/>
<path opacity="0.1" d="M119.587 136.466C119.888 136.355 119.969 134.3 119.951 133.167C119.936 134.306 119.83 135.773 119.587 135.866C119.344 135.959 119.227 136.466 119.32 136.955C119.368 136.697 119.464 136.508 119.587 136.466Z" fill="black"/>
<path opacity="0.1" d="M122.269 112.562C122.416 112.168 122.464 111.745 122.41 111.329C122.407 111.547 122.359 111.763 122.269 111.962C121.713 112.931 121.99 115.561 119.587 116.071L119.731 116.635C121.978 116.053 121.725 113.512 122.269 112.562Z" fill="black"/>
</g>
<path d="M135.616 159.983C134.48 162.046 122.957 159.983 122.957 159.983L122.987 159.776L123.215 158.177H135.357L135.589 159.773L135.616 159.983Z" fill="#D5AD46"/>
<path opacity="0.1" d="M135.616 159.983C134.48 162.046 122.957 159.983 122.957 159.983L122.987 159.776C123.539 159.776 131.877 159.578 135.601 159.776L135.616 159.983Z" fill="black"/>
<path d="M122.957 159.983C122.957 159.983 120.891 160.499 117.686 169.167C114.482 177.834 113.346 189.034 113.346 189.034C113.346 189.034 111.544 192.081 119.236 192.285C119.236 192.285 118.617 194.297 122.957 193.988C127.297 193.679 126.672 193.682 126.672 193.682C126.672 193.682 129.462 191.928 130.702 192.237C131.943 192.546 132.717 192.651 134.06 193.784C135.402 194.918 139.694 194.456 139.745 193.58C139.78 193.15 139.78 192.718 139.745 192.288C139.745 192.288 146.307 192.702 145.067 187.954C143.827 183.206 142.793 175.414 142.793 175.414C142.793 175.414 139.436 160.193 135.61 159.986C131.783 159.779 122.957 159.983 122.957 159.983Z" fill="#D5AD46"/>
<path opacity="0.1" d="M121.574 165.974L119.143 192.291L119.35 192.31L121.78 165.993L121.574 165.974Z" fill="black"/>
<path opacity="0.1" d="M126.668 165.954L126.561 193.664L126.769 193.665L126.875 165.955L126.668 165.954Z" fill="black"/>
<path opacity="0.1" d="M133.153 165.948L132.945 165.956L133.981 193.77L134.188 193.762L133.153 165.948Z" fill="black"/>
<path opacity="0.1" d="M139.646 192.288C139.286 176.437 136.583 165.585 136.55 165.489L136.751 165.438C136.778 165.546 139.496 176.419 139.853 192.297L139.646 192.288Z" fill="black"/>
<path opacity="0.1" d="M123.317 161.53C123.317 161.53 122.957 161.737 123.317 162.73V161.53Z" fill="black"/>
<path opacity="0.1" d="M124.353 161.53C124.353 161.53 123.371 162.148 124.353 163.183V161.53Z" fill="black"/>
<path opacity="0.1" d="M133.549 161.53C133.549 161.53 134.892 162.82 134.582 163.183L133.549 161.53Z" fill="black"/>
<path opacity="0.1" d="M134.631 161.222C134.631 161.222 134.841 162.769 135.616 163.183L134.631 161.222Z" fill="black"/>
<g opacity="0.5">
<path opacity="0.5" d="M189.476 158.747C189.476 158.747 194.546 156.732 196.738 159.191C198.931 161.651 195.236 164.644 195.236 164.644L193.687 167.733L190.041 167.334L189.182 163.063L189.476 158.747Z" fill="#D5AD46"/>
<path opacity="0.1" d="M195.237 164.629L193.687 167.718L190.041 167.331L189.182 163.063L189.482 158.747L189.563 158.717C190.206 158.48 194.546 156.969 196.621 159.05C196.664 159.09 196.705 159.132 196.744 159.176C198.931 161.624 195.237 164.629 195.237 164.629Z" fill="black"/>
<path opacity="0.1" d="M195.237 164.629L193.687 167.718L190.041 167.331L189.182 163.063L189.482 158.747L189.563 158.717C190.191 162.151 191.867 163.6 192.149 163.816L192.191 163.846L193.221 163.762C195.225 162.658 196.282 160.034 196.621 159.041C196.664 159.081 196.705 159.123 196.744 159.167C198.931 161.624 195.237 164.629 195.237 164.629Z" fill="black"/>
<path opacity="0.5" d="M204.09 176.392C204.09 176.392 202.973 190.602 203.276 192.318C203.58 194.033 202.631 194.162 202.631 194.162C202.631 194.162 198.588 195.062 197.825 194.462C197.062 193.862 195.762 193.745 195.762 193.745C195.762 193.745 192.759 194.432 191.419 193.919C190.08 193.407 187.851 193.619 187.851 193.619C187.851 193.619 186.134 194.651 185.659 194.435C185.185 194.219 184.584 194.306 183.208 193.922C181.833 193.538 181.058 193.191 181.788 190.83C182.518 188.47 181.878 180.999 181.833 180.096C181.788 179.193 181.361 177.007 180.758 174.397C180.154 171.788 181.788 172.337 181.788 172.337C185.617 170.363 184.025 166.497 183.425 164.782C182.824 163.066 183.767 162.982 184.239 162.982C184.71 162.982 186.518 161.438 186.518 161.438L187.251 160.781L189.485 158.777C190.041 162.529 191.843 164.104 192.143 164.338L192.185 164.371L193.215 164.284C195.708 162.913 196.738 159.185 196.738 159.185C197.038 159.695 197.708 160.277 198.456 160.817C199.435 161.508 200.455 162.139 201.51 162.706C203.312 163.78 201.985 164.854 201.985 164.854C199.792 172.322 202.886 172.652 202.886 172.652C205.165 172.988 204.09 176.392 204.09 176.392Z" fill="#D5AD46"/>
<path opacity="0.1" d="M187.197 162.997C187.197 162.997 186.551 163.342 186.551 163.726L187.197 162.997Z" fill="black"/>
<path opacity="0.1" d="M187.584 163.726C187.584 163.726 186.725 164.626 186.875 164.887L187.584 163.726Z" fill="black"/>
<path opacity="0.1" d="M187.584 164.89C187.584 164.89 186.939 165.576 187.197 165.963L187.584 164.89Z" fill="black"/>
<path opacity="0.1" d="M191.885 164.854L189.182 167.46C189.083 164.563 187.68 162.244 186.99 161.267L189.224 159.263C189.771 163.045 191.588 164.62 191.885 164.854Z" fill="black"/>
<path opacity="0.5" d="M192.143 164.338L189.44 166.947C189.344 164.047 187.939 161.731 187.251 160.751L189.485 158.747C190.041 162.529 191.843 164.104 192.143 164.338Z" fill="#D5AD46"/>
<path opacity="0.1" d="M198.714 161.324C197.633 163.009 195.624 167.46 195.624 167.46L193.474 164.8C195.966 163.426 196.996 159.701 196.996 159.701C197.297 160.199 197.966 160.781 198.714 161.324Z" fill="black"/>
<path opacity="0.5" d="M198.45 160.808C197.372 162.496 195.36 166.947 195.36 166.947L193.215 164.29C195.708 162.919 196.738 159.191 196.738 159.191C197.038 159.686 197.708 160.268 198.45 160.808Z" fill="#D5AD46"/>
<path opacity="0.1" d="M196.87 188.326C196.87 188.326 196.411 192.225 196.146 192.447L196.87 188.326Z" fill="black"/>
<path opacity="0.1" d="M200.651 189.013C200.651 189.013 201.168 191.802 200.952 192.447L200.651 189.013Z" fill="black"/>
<path opacity="0.1" d="M189.647 189.184C189.647 189.184 189.176 191.802 189.647 192.102V189.184Z" fill="black"/>
<path opacity="0.1" d="M186.857 188.797C186.857 188.797 186.467 191.889 186.557 192.447L186.857 188.797Z" fill="black"/>
<path opacity="0.1" d="M201.297 173.728C201.297 173.728 200.096 174.673 200.18 174.928L201.297 173.728Z" fill="black"/>
<path opacity="0.1" d="M202.156 174.331C202.156 174.331 199.856 176.263 201.006 176.047C202.156 175.831 202.156 174.331 202.156 174.331Z" fill="black"/>
</g>
<path d="M225.065 84.5787C225.067 85.6037 224.765 86.6063 224.197 87.4597C223.628 88.313 222.819 88.9788 221.872 89.3727C220.924 89.7666 219.881 89.8709 218.874 89.6724C217.867 89.4738 216.942 88.9815 216.215 88.2576C215.489 87.5337 214.993 86.6107 214.792 85.6057C214.591 84.6006 214.693 83.5585 215.085 82.6113C215.478 81.6641 216.142 80.8545 216.996 80.2848C217.849 79.7151 218.852 79.411 219.878 79.411C221.252 79.411 222.569 79.9551 223.542 80.9239C224.514 81.8927 225.062 83.2071 225.065 84.5787ZM219.278 87.32L223.128 83.478C223.19 83.4152 223.224 83.3306 223.224 83.2426C223.224 83.1545 223.19 83.0699 223.128 83.0071L222.653 82.5332C222.623 82.5019 222.586 82.4771 222.545 82.4601C222.505 82.4432 222.462 82.4344 222.418 82.4344C222.374 82.4344 222.33 82.4432 222.29 82.4601C222.249 82.4771 222.213 82.5019 222.182 82.5332L219.043 85.6674L217.578 84.2098C217.514 84.1479 217.429 84.1132 217.341 84.1132C217.252 84.1132 217.167 84.1479 217.103 84.2098L216.632 84.6837C216.6 84.7144 216.576 84.751 216.559 84.7915C216.542 84.8319 216.533 84.8753 216.533 84.9191C216.533 84.963 216.542 85.0064 216.559 85.0468C216.576 85.0872 216.6 85.1239 216.632 85.1546L218.806 87.326C218.837 87.3573 218.874 87.3822 218.914 87.3991C218.955 87.4161 218.998 87.4248 219.042 87.4248C219.086 87.4248 219.129 87.4161 219.17 87.3991C219.21 87.3822 219.247 87.3573 219.278 87.326V87.32Z" fill="#3ACC6C"/>
<path d="M162.234 141.427C162.234 142.451 161.929 143.452 161.36 144.304C160.79 145.156 159.98 145.82 159.032 146.212C158.084 146.604 157.041 146.707 156.035 146.507C155.029 146.307 154.105 145.814 153.379 145.089C152.654 144.365 152.16 143.442 151.96 142.437C151.76 141.432 151.863 140.391 152.255 139.444C152.648 138.498 153.312 137.689 154.165 137.12C155.018 136.551 156.021 136.247 157.047 136.247C158.423 136.247 159.742 136.793 160.714 137.764C161.687 138.735 162.234 140.053 162.234 141.427ZM156.446 144.168L160.309 140.326C160.34 140.295 160.365 140.258 160.382 140.217C160.399 140.177 160.408 140.133 160.408 140.089C160.408 140.045 160.399 140.001 160.382 139.96C160.365 139.92 160.34 139.883 160.309 139.852L159.822 139.396C159.791 139.365 159.754 139.34 159.713 139.323C159.673 139.306 159.629 139.297 159.585 139.297C159.541 139.297 159.497 139.306 159.456 139.323C159.415 139.34 159.378 139.365 159.347 139.396L156.209 142.515L154.743 141.052C154.713 141.02 154.676 140.995 154.636 140.979C154.595 140.962 154.552 140.953 154.508 140.953C154.464 140.953 154.42 140.962 154.38 140.979C154.339 140.995 154.303 141.02 154.272 141.052L153.797 141.523C153.735 141.586 153.701 141.671 153.701 141.759C153.701 141.848 153.735 141.933 153.797 141.996L155.972 144.168C156.003 144.199 156.04 144.224 156.08 144.241C156.121 144.258 156.165 144.267 156.209 144.267C156.253 144.267 156.297 144.258 156.338 144.241C156.378 144.224 156.415 144.199 156.446 144.168Z" fill="#3ACC6C"/>
<path d="M162.234 198.01C162.234 199.035 161.929 200.036 161.36 200.888C160.79 201.74 159.98 202.404 159.032 202.796C158.084 203.188 157.041 203.29 156.035 203.09C155.029 202.891 154.105 202.397 153.379 201.673C152.654 200.948 152.16 200.026 151.96 199.021C151.76 198.016 151.863 196.975 152.255 196.028C152.648 195.082 153.312 194.273 154.165 193.704C155.018 193.134 156.021 192.831 157.047 192.831C158.423 192.831 159.742 193.376 160.714 194.348C161.687 195.319 162.234 196.637 162.234 198.01ZM156.446 200.752L160.309 196.91C160.34 196.879 160.365 196.842 160.382 196.801C160.399 196.76 160.408 196.717 160.408 196.673C160.408 196.629 160.399 196.585 160.382 196.544C160.365 196.504 160.34 196.467 160.309 196.436L159.837 195.965C159.806 195.933 159.769 195.908 159.728 195.891C159.688 195.874 159.644 195.866 159.6 195.866C159.556 195.866 159.512 195.874 159.471 195.891C159.43 195.908 159.393 195.933 159.362 195.965L156.224 199.099L154.758 197.635C154.728 197.604 154.691 197.579 154.651 197.562C154.61 197.545 154.567 197.537 154.523 197.537C154.479 197.537 154.435 197.545 154.395 197.562C154.354 197.579 154.318 197.604 154.287 197.635L153.812 198.106C153.75 198.17 153.716 198.255 153.716 198.343C153.716 198.432 153.75 198.517 153.812 198.58L155.987 200.752C156.018 200.783 156.055 200.808 156.095 200.825C156.136 200.842 156.18 200.851 156.224 200.851C156.268 200.851 156.312 200.842 156.353 200.825C156.393 200.808 156.43 200.783 156.461 200.752H156.446Z" fill="#3ACC6C"/>
<defs>
<linearGradient id="paint0_linear" x1="160.837" y1="211.585" x2="160.837" y2="0" gradientUnits="userSpaceOnUse">
<stop stop-color="#808080" stop-opacity="0.25"/>
<stop offset="0.54" stop-color="#808080" stop-opacity="0.12"/>
<stop offset="1" stop-color="#808080" stop-opacity="0.1"/>
</linearGradient>
</defs>
</svg>
