<svg width="141" height="184" viewBox="0 0 141 184" fill="none" xmlns="http://www.w3.org/2000/svg">
<path d="M141 76.5C141 118.75 109.436 153 70.5 153C31.5639 153 0 118.75 0 76.5C0 34.2503 31.5639 4.93277e-05 70.5 4.93277e-05C109.436 4.93277e-05 141 34.2503 141 76.5Z" fill="#C4C4C4"/>
<path d="M93.7137 183.16C79.5537 183.16 68.6337 179.86 60.9537 173.26C53.2737 166.54 49.4337 157.48 49.4337 146.08V142.84H74.4537V146.62C74.4537 151.9 76.0737 155.98 79.3137 158.86C82.5537 161.62 87.2337 163 93.3537 163C98.8737 163 103.254 161.62 106.494 158.86C109.734 155.98 111.354 151.72 111.354 146.08C111.354 139.48 109.554 134.86 105.954 132.22C102.354 129.58 97.5537 128.26 91.5537 128.26H82.3737V108.1H92.0937C97.0137 108.1 101.034 106.66 104.154 103.78C107.274 100.78 108.834 96.46 108.834 90.82C108.834 85.66 107.454 81.82 104.694 79.3C102.054 76.78 98.2737 75.52 93.3537 75.52C88.1937 75.52 84.1737 76.84 81.2937 79.48C78.4137 82 76.9737 85.78 76.9737 90.82V94.24H51.9537V89.2C51.9537 82.48 53.6937 76.6 57.1737 71.56C60.6537 66.4 65.4537 62.44 71.5737 59.68C77.8137 56.8 84.8937 55.36 92.8137 55.36C105.414 55.36 115.434 58.3 122.874 64.18C130.434 70.06 134.214 78.4 134.214 89.2C134.214 96.04 132.474 101.68 128.994 106.12C125.634 110.44 120.894 114.04 114.774 116.92V117.64C121.494 119.68 126.834 123.28 130.794 128.44C134.754 133.6 136.734 140.08 136.734 147.88C136.734 155.08 134.874 161.38 131.154 166.78C127.554 172.06 122.514 176.14 116.034 179.02C109.554 181.78 102.114 183.16 93.7137 183.16Z" fill="black"/>
</svg>
