<svg width="323" height="249" viewBox="0 0 323 249" fill="none" xmlns="http://www.w3.org/2000/svg">
<g clip-path="url(#clip0)">
<path d="M74.6551 94.3788C74.6551 94.3788 61.344 70.6955 41.2847 63.8741C32.8669 61.0095 25.5197 55.6232 20.4962 48.2614C18.118 44.7662 16.0645 41.0591 14.3615 37.1868" stroke="#535461" stroke-width="2" stroke-miterlimit="10"/>
<path d="M1.74796 32.8028C4.034 35.0195 14.6771 37.3437 14.6771 37.3437C14.6771 37.3437 12.0728 26.7338 9.78093 24.5055C8.67926 23.4582 7.21088 22.8889 5.69399 22.921C4.1771 22.9531 2.73391 23.584 1.67718 24.677C0.62045 25.7701 0.0353039 27.2371 0.0485524 28.7603C0.0618008 30.2835 0.672376 31.7401 1.74796 32.8145V32.8028Z" fill="#D5AD46"/>
<path d="M7.76963 52.0033C10.892 52.625 21.0808 48.7524 21.0808 48.7524C21.0808 48.7524 13.1375 41.2686 10.0123 40.6468C8.52696 40.3843 6.99829 40.7163 5.75389 41.5717C4.50948 42.4271 3.64835 43.7379 3.35505 45.2232C3.06175 46.7084 3.35962 48.2499 4.18482 49.5173C5.01002 50.7847 6.29689 51.6771 7.76963 52.0033Z" fill="#D5AD46"/>
<path d="M29.6896 72.7873C32.699 71.7414 39.5282 63.2378 39.5282 63.2378C39.5282 63.2378 28.9141 60.8004 25.9075 61.8463C25.1698 62.0763 24.4856 62.4529 23.8956 62.9535C23.3056 63.4541 22.8218 64.0687 22.473 64.7606C22.1241 65.4526 21.9172 66.2079 21.8646 66.9816C21.8121 67.7554 21.9149 68.5318 22.1669 69.265C22.419 69.9981 22.8152 70.6729 23.332 71.2493C23.8488 71.8257 24.4757 72.292 25.1754 72.6206C25.8752 72.9491 26.6336 73.1332 27.4055 73.1618C28.1775 73.1904 28.9473 73.0631 29.6693 72.7873H29.6896Z" fill="#D5AD46"/>
<path d="M49.8009 84.7539C52.9435 84.2309 61.1154 77.0115 61.1154 77.0115C61.1154 77.0115 51.0655 72.8076 47.9229 73.3276C46.4137 73.5777 45.0652 74.4194 44.1741 75.6676C43.2831 76.9158 42.9224 78.4683 43.1714 79.9835C43.4205 81.4987 44.2588 82.8525 45.5021 83.7471C46.7454 84.6418 48.2917 85.0039 49.8009 84.7539Z" fill="#D5AD46"/>
<path d="M29.9471 40.461C29.9471 43.6567 24.1886 52.933 24.1886 52.933C24.1886 52.933 18.4185 43.6625 18.4156 40.4668C18.3984 39.6957 18.5348 38.9289 18.8169 38.2115C19.0989 37.4941 19.5208 36.8404 20.0579 36.289C20.595 35.7375 21.2365 35.2994 21.9446 35.0002C22.6527 34.7011 23.4131 34.547 24.1814 34.547C24.9496 34.547 25.7101 34.7011 26.4182 35.0002C27.1263 35.2994 27.7677 35.7375 28.3048 36.289C28.8419 36.8404 29.2639 37.4941 29.5459 38.2115C29.8279 38.9289 29.9643 39.6957 29.9471 40.4668V40.461Z" fill="#D5AD46"/>
<path d="M53.2937 54.775C52.3416 57.8255 44.08 64.9433 44.08 64.9433C44.08 64.9433 41.3368 54.3538 42.2773 51.2888C42.7827 49.8854 43.8083 48.7322 45.1402 48.0696C46.472 47.4071 48.0072 47.2864 49.4256 47.7327C50.8439 48.179 52.0358 49.1578 52.7528 50.4651C53.4697 51.7723 53.6562 53.3069 53.2734 54.7489L53.2937 54.775Z" fill="#D5AD46"/>
<path d="M74.0821 71.785C73.6597 74.9546 66.7147 83.371 66.7147 83.371C66.7147 83.371 62.2295 73.4119 62.6635 70.2423C62.8883 68.7389 63.6929 67.3845 64.9038 66.4717C66.1146 65.5588 67.6345 65.1606 69.1352 65.3632C70.6359 65.5657 71.9971 66.3527 72.9249 67.5542C73.8526 68.7557 74.2724 70.2754 74.0937 71.785H74.0821Z" fill="#D5AD46"/>
<path opacity="0.25" d="M1.74796 32.8028C4.034 35.0195 14.6771 37.3437 14.6771 37.3437C14.6771 37.3437 12.0728 26.7338 9.78093 24.5055C8.67926 23.4582 7.21088 22.8889 5.69399 22.921C4.1771 22.9531 2.73391 23.584 1.67718 24.677C0.62045 25.7701 0.0353039 27.2371 0.0485524 28.7603C0.0618008 30.2835 0.672376 31.7401 1.74796 32.8145V32.8028Z" fill="black"/>
<path opacity="0.25" d="M7.76963 52.0033C10.892 52.625 21.0808 48.7524 21.0808 48.7524C21.0808 48.7524 13.1375 41.2686 10.0123 40.6468C8.52696 40.3843 6.99829 40.7163 5.75389 41.5717C4.50948 42.4271 3.64835 43.7379 3.35505 45.2232C3.06175 46.7084 3.35962 48.2499 4.18482 49.5173C5.01002 50.7847 6.29689 51.6771 7.76963 52.0033Z" fill="black"/>
<path opacity="0.25" d="M29.6896 72.7873C32.699 71.7414 39.5282 63.2378 39.5282 63.2378C39.5282 63.2378 28.9141 60.8004 25.9075 61.8463C25.1698 62.0763 24.4856 62.4529 23.8956 62.9535C23.3056 63.4541 22.8218 64.0687 22.473 64.7606C22.1241 65.4526 21.9172 66.2079 21.8646 66.9816C21.8121 67.7554 21.9149 68.5318 22.1669 69.265C22.419 69.9981 22.8152 70.6729 23.332 71.2493C23.8488 71.8257 24.4757 72.292 25.1754 72.6206C25.8752 72.9491 26.6336 73.1332 27.4055 73.1618C28.1775 73.1904 28.9473 73.0631 29.6693 72.7873H29.6896Z" fill="black"/>
<path opacity="0.25" d="M49.8009 84.7539C52.9435 84.2309 61.1154 77.0115 61.1154 77.0115C61.1154 77.0115 51.0655 72.8076 47.9229 73.3276C46.4137 73.5777 45.0652 74.4194 44.1741 75.6676C43.2831 76.9158 42.9224 78.4683 43.1714 79.9835C43.4205 81.4987 44.2588 82.8525 45.5021 83.7471C46.7454 84.6418 48.2917 85.0039 49.8009 84.7539Z" fill="black"/>
<path opacity="0.25" d="M29.9471 40.461C29.9471 43.6567 24.1886 52.933 24.1886 52.933C24.1886 52.933 18.4185 43.6625 18.4156 40.4668C18.3984 39.6957 18.5348 38.9289 18.8169 38.2115C19.0989 37.4941 19.5208 36.8404 20.0579 36.289C20.595 35.7375 21.2365 35.2994 21.9446 35.0002C22.6527 34.7011 23.4131 34.547 24.1814 34.547C24.9496 34.547 25.7101 34.7011 26.4182 35.0002C27.1263 35.2994 27.7677 35.7375 28.3048 36.289C28.8419 36.8404 29.2639 37.4941 29.5459 38.2115C29.8279 38.9289 29.9643 39.6957 29.9471 40.4668V40.461Z" fill="black"/>
<path opacity="0.25" d="M53.2937 54.775C52.3416 57.8255 44.08 64.9433 44.08 64.9433C44.08 64.9433 41.3368 54.3538 42.2773 51.2888C42.7827 49.8854 43.8083 48.7322 45.1402 48.0696C46.472 47.4071 48.0072 47.2864 49.4256 47.7327C50.8439 48.179 52.0358 49.1578 52.7528 50.4651C53.4697 51.7723 53.6562 53.3069 53.2734 54.7489L53.2937 54.775Z" fill="black"/>
<path opacity="0.25" d="M74.0821 71.785C73.6597 74.9546 66.7147 83.371 66.7147 83.371C66.7147 83.371 62.2295 73.4119 62.6635 70.2423C62.8883 68.7389 63.6929 67.3845 64.9038 66.4717C66.1146 65.5588 67.6345 65.1606 69.1352 65.3632C70.6359 65.5657 71.9971 66.3527 72.9249 67.5542C73.8526 68.7557 74.2724 70.2754 74.0937 71.785H74.0821Z" fill="black"/>
<path d="M73.8883 93.9083C73.8883 93.9083 71.2839 66.8375 55.6925 52.4392C49.1556 46.3964 44.6125 38.4942 42.9891 29.7088C42.2271 25.5448 41.8474 21.3194 41.8548 17.0857" stroke="#535461" stroke-width="2" stroke-miterlimit="10"/>
<path d="M32.0885 7.95456C33.2807 10.9208 42.0805 17.3558 42.0805 17.3558C42.0805 17.3558 43.9759 6.59201 42.7866 3.62579C42.2148 2.20034 41.1024 1.06132 39.6942 0.459275C38.2859 -0.142765 36.6972 -0.158501 35.2774 0.415529C33.8575 0.989559 32.723 2.10633 32.1234 3.52018C31.5237 4.93402 31.508 6.52911 32.0798 7.95456H32.0885Z" fill="#D5AD46"/>
<path d="M29.8342 27.9569C32.4386 29.7959 43.3103 30.3973 43.3103 30.3973C43.3103 30.3973 39.0941 20.3278 36.4898 18.4888C35.2392 17.6027 33.6893 17.2517 32.1809 17.513C30.6725 17.7742 29.3293 18.6263 28.4467 19.8819C27.5641 21.1374 27.2145 22.6935 27.4747 24.2079C27.7349 25.7223 28.5837 27.0708 29.8342 27.9569Z" fill="#D5AD46"/>
<path d="M41.4988 55.8702C44.6819 56.1403 54.3585 51.1463 54.3585 51.1463C54.3585 51.1463 45.6398 44.6008 42.4653 44.3336C41.7015 44.2519 40.9292 44.3243 40.1936 44.5464C39.4581 44.7685 38.7741 45.1359 38.1819 45.627C37.5897 46.1181 37.1012 46.7231 36.745 47.4063C36.3889 48.0896 36.1722 48.8374 36.1079 49.6058C36.0435 50.3743 36.1327 51.1479 36.3701 51.8813C36.6076 52.6146 36.9886 53.293 37.4908 53.8765C37.993 54.4601 38.6062 54.937 39.2945 55.2793C39.9827 55.6217 40.7322 55.8226 41.4988 55.8702Z" fill="#D5AD46"/>
<path d="M55.053 74.9982C58.1377 75.8 68.5233 72.5229 68.5233 72.5229C68.5233 72.5229 61.0315 64.5917 57.9497 63.7899C56.4786 63.4321 54.9263 63.6692 53.6279 64.4502C52.3294 65.2312 51.3888 66.4934 51.009 67.9644C50.6292 69.4354 50.8407 70.9974 51.5978 72.3133C52.3549 73.6292 53.597 74.5935 55.0559 74.9982H55.053Z" fill="#D5AD46"/>
<path d="M54.7781 26.4288C53.4904 29.3514 44.4794 35.4843 44.4794 35.4843C44.4794 35.4843 42.9457 24.6653 44.2334 21.7398C44.5316 21.032 44.9672 20.3908 45.5148 19.8538C46.0624 19.3167 46.711 18.8945 47.4227 18.6117C48.1345 18.3289 48.8953 18.1912 49.6606 18.2066C50.4259 18.222 51.1806 18.3903 51.8805 18.7015C52.5804 19.0127 53.2116 19.4607 53.7372 20.0194C54.2629 20.5781 54.6725 21.2362 54.9423 21.9555C55.212 22.6747 55.3364 23.4407 55.3082 24.2087C55.28 24.9767 55.0998 25.7314 54.7781 26.4288Z" fill="#D5AD46"/>
<path d="M70.3463 48.9965C68.2455 51.3991 57.8194 54.5454 57.8194 54.5454C57.8194 54.5454 59.5788 43.7613 61.6826 41.3587C62.1821 40.7875 62.7887 40.3208 63.4679 39.985C64.1471 39.6493 64.8856 39.4512 65.641 39.4019C66.3965 39.3527 67.1542 39.4533 67.871 39.6981C68.5877 39.9429 69.2494 40.327 69.8182 40.8285C70.3871 41.33 70.852 41.9391 71.1864 42.621C71.5209 43.3029 71.7182 44.0442 71.7673 44.8027C71.8163 45.5611 71.716 46.3219 71.4722 47.0415C71.2284 47.761 70.8459 48.4253 70.3463 48.9965Z" fill="#D5AD46"/>
<path d="M82.5 73.0197C80.8332 75.7447 71.0871 80.6139 71.0871 80.6139C71.0871 80.6139 71.0061 69.6845 72.6729 66.9594C73.4734 65.6495 74.7593 64.7125 76.2479 64.3546C77.7365 63.9966 79.3057 64.247 80.6104 65.0507C81.9151 65.8543 82.8483 67.1454 83.2049 68.6399C83.5614 70.1343 83.312 71.7098 82.5116 73.0197H82.5Z" fill="#D5AD46"/>
<path opacity="0.1" d="M118.11 247.437C135.934 247.437 150.384 245.548 150.384 243.219C150.384 240.889 135.934 239 118.11 239C100.286 239 85.8364 240.889 85.8364 243.219C85.8364 245.548 100.286 247.437 118.11 247.437Z" fill="#D5AD46"/>
<path d="M314.866 169.859V27.7565H39.5716V161.707C43.0875 164.653 47.3152 167.131 51.7253 169.168C53.8975 170.173 56.116 171.092 58.3808 171.925H311.581L314.866 169.859Z" fill="url(#paint0_linear)"/>
<path d="M314.333 169.917V31.8237H40.1735V162.006C43.6749 164.871 47.8853 167.279 52.2693 169.269C54.4338 170.238 56.6446 171.131 58.9017 171.948H311.055L314.333 169.917Z" fill="white"/>
<path d="M314.333 28.1603H40.1764V35.464H314.333V28.1603Z" fill="#5A5773"/>
<path d="M45.6513 33.7005C46.6901 33.7005 47.5322 32.855 47.5322 31.8121C47.5322 30.7692 46.6901 29.9237 45.6513 29.9237C44.6125 29.9237 43.7704 30.7692 43.7704 31.8121C43.7704 32.855 44.6125 33.7005 45.6513 33.7005Z" fill="white"/>
<path d="M50.7153 33.7005C51.7541 33.7005 52.5963 32.855 52.5963 31.8121C52.5963 30.7692 51.7541 29.9237 50.7153 29.9237C49.6765 29.9237 48.8344 30.7692 48.8344 31.8121C48.8344 32.855 49.6765 33.7005 50.7153 33.7005Z" fill="white"/>
<path d="M55.7794 33.7005C56.8182 33.7005 57.6603 32.855 57.6603 31.8121C57.6603 30.7692 56.8182 29.9237 55.7794 29.9237C54.7406 29.9237 53.8984 30.7692 53.8984 31.8121C53.8984 32.855 54.7406 33.7005 55.7794 33.7005Z" fill="white"/>
<path d="M155.523 51.5153H110.236V80.0851H155.523V51.5153Z" fill="#D5AD46"/>
<path opacity="0.2" d="M92.819 51.5153H47.5322V80.0851H92.819V51.5153Z" fill="#5A5773"/>
<path opacity="0.2" d="M218.227 51.5153H172.94V80.0851H218.227V51.5153Z" fill="#5A5773"/>
<path opacity="0.2" d="M92.819 92.3596H47.5322V120.929H92.819V92.3596Z" fill="#5A5773"/>
<path opacity="0.2" d="M155.523 92.3596H110.236V120.929H155.523V92.3596Z" fill="#5A5773"/>
<path opacity="0.2" d="M218.227 92.3596H172.94V120.929H218.227V92.3596Z" fill="#5A5773"/>
<path opacity="0.2" d="M92.819 133.201H47.5322V161.771H92.819V133.201Z" fill="#5A5773"/>
<path opacity="0.2" d="M155.523 133.201H110.236V161.771H155.523V133.201Z" fill="#5A5773"/>
<path opacity="0.2" d="M218.227 133.201H172.94V161.771H218.227V133.201Z" fill="#5A5773"/>
<path d="M144.426 76.5407L141.3 77.6505L140.166 75.7621C139.298 74.3095 138.094 72.3223 137.206 70.8784C135.637 68.3393 137.689 64.4695 137.689 64.4695C137.689 64.4695 138.059 60.5852 139.379 59.3883C140.699 58.1913 141.066 64.4695 141.066 64.4695C146.364 66.8866 143.526 72.5722 143.526 72.5722L144.041 74.8266L144.426 76.5407Z" fill="#EFB7B9"/>
<path opacity="0.1" d="M144.426 76.5406L141.3 77.6504L140.166 75.762V75.5964C140.166 75.5964 141.957 74.3617 144.047 74.8265L144.426 76.5406Z" fill="black"/>
<path d="M139.379 89.2655L140.944 87.9349L140.16 75.9596C140.16 75.9596 144.211 73.1764 147.209 77.5313C147.209 77.5313 147.088 80.1925 147.209 80.9188C147.331 81.6451 146.367 82.3714 147.209 83.0948C148.051 83.8182 147.209 86.2411 147.209 86.2411C147.209 86.2411 148.161 87.9349 148.763 88.4171C149.365 88.8994 149.97 92.8941 148.763 93.7395C147.557 94.5849 145.294 96.5227 145.294 97.3681C145.294 98.2135 142.4 100.273 142.4 100.273L139.859 96.9004L139.379 89.2655Z" fill="#FF6484"/>
<path d="M105.522 161.96C99.6829 159.473 100.979 153.398 102.079 150.339C102.299 149.719 102.557 149.113 102.852 148.526L106.127 146.53C106.127 146.53 106.796 148.241 107.51 150.536C109.168 155.876 111.075 164.327 105.522 161.96Z" fill="#EFB7B9"/>
<path d="M113.55 217.388C113.154 218.162 112.862 218.984 112.681 219.834C112.392 221.202 112.266 222.6 112.305 223.998C112.328 224.965 112.409 225.598 112.409 225.598L105.904 230.09C105.904 230.09 105.942 229.564 106.006 228.791C106.174 226.734 106.524 222.917 106.854 222.423C107.082 222.08 107.241 220.703 107.343 219.425C107.444 218.147 107.484 217.025 107.484 217.025C107.484 217.025 115.312 214.079 113.55 217.388Z" fill="#EFB7B9"/>
<path d="M128.912 220.61C128.912 220.61 128.912 221.859 128.866 223.312C128.82 224.765 128.733 226.479 128.551 227.278C128.383 228.01 128.371 229.355 128.403 230.595C128.446 232.048 128.551 233.355 128.551 233.355C128.551 233.355 121.91 227.051 122.587 226.551C122.769 226.418 122.948 225.88 123.113 225.166C123.316 224.294 123.498 223.132 123.634 222.144C123.796 220.967 123.898 220.02 123.898 220.02L128.912 220.61Z" fill="#EFB7B9"/>
<path opacity="0.1" d="M113.55 217.388C113.154 218.162 112.862 218.984 112.681 219.834C110.901 219.788 109.124 219.651 107.357 219.425C107.455 218.176 107.499 217.025 107.499 217.025C107.499 217.025 115.312 214.079 113.55 217.388Z" fill="black"/>
<path opacity="0.1" d="M128.912 220.61C128.912 220.61 128.912 221.859 128.866 223.312C126.794 223.844 124.664 222.78 123.634 222.15C123.796 220.973 123.898 220.026 123.898 220.026L128.912 220.61Z" fill="black"/>
<path d="M142.51 158.816C139.859 164.627 138.774 171.518 138.774 171.518L137.811 177.328C137.811 177.328 138.294 179.867 137.811 180.835C137.327 181.802 136.364 183.377 136.364 183.377C136.364 183.377 137.087 189.304 136.364 189.908C135.64 190.512 136.364 194.141 136.364 194.141L133.953 206.343L130.579 222.066C127.327 224.73 122.998 221.342 122.998 221.342L123.953 211.061C123.953 211.061 125.399 193.048 124.798 192.31C124.196 191.573 125.038 189.286 125.038 189.286C125.038 189.286 125.883 187.107 125.281 186.262C124.679 185.416 125.399 183.601 125.399 183.601C125.399 183.601 125.159 176.221 125.883 174.528C126.606 172.834 125.883 162.358 125.883 162.358L125.593 159.095L125.425 157.288L125.411 157.111C125.411 157.111 125.301 157.834 125.122 158.956C124.589 162.369 123.455 169.444 123.006 170.899C122.701 171.948 122.287 172.962 121.771 173.923C121.771 173.923 122.396 177.552 121.771 178.519C121.146 179.487 121.675 180.576 121.675 180.576C121.675 180.576 122.277 183.601 120.468 184.809C118.66 186.018 120.468 186.625 120.468 186.625C120.468 186.625 119.143 189.53 118.663 190.736C118.182 191.942 118.663 193.641 118.663 193.641L117.699 203.437C117.699 203.437 116.854 207.548 116.976 210.332C117.097 213.115 115.891 219.524 115.891 219.524C115.891 219.524 106.613 219.524 105.184 218.434C103.754 217.345 107.571 206.717 107.571 206.717C107.571 206.717 108.656 188.089 108.413 187.607C108.17 187.125 108.413 183.493 109.258 182.77C110.103 182.046 109.258 180.591 109.258 180.591C109.258 180.591 109.018 177.686 109.258 176.962C109.498 176.239 109.221 173.816 109.221 173.816C109.221 173.816 108.413 167.889 108.295 164.502C108.176 161.114 107.571 153.497 107.571 153.497C107.571 153.497 108.202 148.785 108.298 146.542C108.332 145.717 108.7 144.685 109.166 143.715C109.687 142.619 110.287 141.563 110.96 140.554C110.96 140.554 139.506 132.082 140.704 132.925C141.023 133.149 141.486 134.668 141.943 136.867C143.216 143.012 144.46 154.546 142.51 158.816Z" fill="#444053"/>
<path d="M124.922 84.8873C129.513 84.8873 133.236 81.1504 133.236 76.5406C133.236 71.9309 129.513 68.194 124.922 68.194C120.33 68.194 116.608 71.9309 116.608 76.5406C116.608 81.1504 120.33 84.8873 124.922 84.8873Z" fill="#A1616A"/>
<path opacity="0.1" d="M141.943 136.873C140.985 137.367 140.343 137.707 140.343 137.707C140.343 137.707 126.849 144.119 123.012 143.756C120.043 143.465 112.464 143.631 109.163 143.712C109.684 142.616 110.284 141.56 110.957 140.551C110.957 140.551 139.506 132.083 140.704 132.925C141.023 133.155 141.486 134.668 141.943 136.873Z" fill="black"/>
<path d="M119.137 89.8698C119.137 89.8698 111.437 91.09 109.62 92.2869C107.803 93.4839 104.203 95.7964 104.203 100.756C104.203 105.715 103.361 110.796 102.878 112.246C102.394 113.695 110.468 125.43 110.468 125.43L107.574 143.212C107.574 143.212 119.149 142.849 123.003 143.212C126.858 143.576 140.345 137.164 140.345 137.164C140.345 137.164 148.297 132.931 149.984 132.806C151.671 132.681 146.61 123.492 146.61 123.492C146.61 123.492 138.777 108.617 140.102 106.197C141.428 103.777 142.4 100.27 142.4 100.27L140.953 87.9349C140.953 87.9349 138.786 87.2086 136.977 88.5392C135.169 89.8698 129.025 89.1435 129.025 89.1435L119.137 89.8698Z" fill="#FF6484"/>
<path opacity="0.1" d="M106.067 111.4L103.046 112.246L102.21 123.628C102.21 123.628 103.295 126.653 102.21 127.62C101.125 128.588 100.884 149.273 100.884 149.273C100.884 149.273 104.38 151.812 108.475 149.877C108.475 149.877 107.873 147.579 109.681 139.232C111.49 130.886 111.487 126.653 111.487 126.653C111.487 126.653 111.487 116.249 112.332 114.555C113.177 112.862 112.332 108.629 112.332 108.629C112.332 108.629 110.645 106.331 110.764 105.485C110.882 104.64 106.067 111.4 106.067 111.4Z" fill="black"/>
<path opacity="0.1" d="M107.51 150.545C105.736 151.145 103.805 151.075 102.079 150.348C102.299 149.728 102.557 149.122 102.852 148.535L106.127 146.539C106.127 146.539 106.807 148.25 107.51 150.545Z" fill="black"/>
<path d="M105.884 111.4L102.872 112.246L102.03 123.628C102.03 123.628 103.115 126.653 102.03 127.62C100.945 128.588 100.704 149.273 100.704 149.273C100.704 149.273 104.203 151.809 108.295 149.865C108.295 149.865 107.693 147.567 109.498 139.221C111.304 130.874 111.307 126.641 111.307 126.641C111.307 126.641 111.307 116.237 112.149 114.544C112.991 112.85 112.149 108.617 112.149 108.617C112.149 108.617 110.462 106.319 110.584 105.474C110.705 104.628 105.884 111.4 105.884 111.4Z" fill="#FF6484"/>
<path opacity="0.1" d="M136.728 113.213C136.728 113.213 135.163 126.76 130.582 129.302C130.582 129.302 140.823 126.4 136.728 113.213Z" fill="black"/>
<path opacity="0.1" d="M113.717 114.425C113.717 114.425 119.378 117.205 118.058 119.14C116.738 121.075 113.717 114.425 113.717 114.425Z" fill="black"/>
<path opacity="0.1" d="M113.717 119.988C113.717 119.988 117.332 123.739 116.611 125.069C115.891 126.4 113.717 119.988 113.717 119.988Z" fill="black"/>
<path opacity="0.1" d="M142.872 88.9023C142.872 88.9023 144.29 91.3195 144.426 92.8941C144.562 94.4687 142.872 88.9023 142.872 88.9023Z" fill="black"/>
<path opacity="0.1" d="M142.872 85.6369C142.872 85.6369 143.584 85.0297 145.401 85.6369C147.218 86.2441 142.872 85.6369 142.872 85.6369Z" fill="black"/>
<path opacity="0.1" d="M135.915 156.335C132.93 156.76 129.886 156.369 127.104 155.202L125.585 159.107L125.417 157.3C125.666 155.783 126.149 154.159 127.104 153.75C127.104 153.75 130.449 156.425 135.915 156.335Z" fill="black"/>
<path opacity="0.1" d="M111.2 161.417C111.2 161.417 118.611 162.959 120.688 162.686L111.2 161.417Z" fill="black"/>
<path opacity="0.1" d="M111.97 163.366C111.97 163.366 115.132 163.229 116.712 163.865L111.97 163.366Z" fill="black"/>
<path opacity="0.1" d="M112.331 164.682C113.774 164.99 115.239 165.184 116.712 165.263L112.331 164.682Z" fill="black"/>
<path opacity="0.1" d="M112.149 181.329C112.285 181.239 118.475 179.786 119.244 180.829L112.149 181.329Z" fill="black"/>
<path opacity="0.1" d="M112.149 183.235C112.149 183.235 117.526 182.598 117.662 183.235C117.798 183.871 112.149 183.235 112.149 183.235Z" fill="black"/>
<path opacity="0.1" d="M112.149 184.957C112.149 184.957 117.887 183.766 118.564 184.057C119.242 184.347 112.149 184.957 112.149 184.957Z" fill="black"/>
<path opacity="0.1" d="M112.421 225.601L105.916 230.093C105.916 230.093 105.954 229.567 106.017 228.794C107.464 225.221 109.348 223.335 109.348 223.335C110.815 222.952 111.741 223.306 112.317 224.001C112.34 224.965 112.421 225.601 112.421 225.601Z" fill="black"/>
<path d="M113.055 229.637C112.135 231.742 111.673 234.02 111.698 236.319C111.734 238.204 111.258 240.063 110.32 241.696C110.185 241.926 110.032 242.146 109.863 242.353C109.863 242.353 105.343 242.315 103.76 240.999C103.582 240.858 103.437 240.679 103.335 240.476C102.429 238.663 105.097 231.723 105.097 231.723C106.498 226.371 109.342 223.513 109.342 223.513C114.409 222.196 113.055 229.637 113.055 229.637Z" fill="#444053"/>
<path opacity="0.1" d="M110.32 241.682C110.185 241.912 110.032 242.131 109.863 242.338C109.863 242.338 105.343 242.3 103.76 240.984C104.539 238.399 107.021 230.575 108.185 231.906C109.278 233.155 110.04 239.166 110.32 241.682Z" fill="black"/>
<path d="M109.701 232.391L109.386 244.11H110.902C110.902 244.11 111.148 233.829 111.825 232.391C112.502 230.953 109.701 232.391 109.701 232.391Z" fill="#444053"/>
<path opacity="0.1" d="M128.551 233.355C128.551 233.355 121.91 227.051 122.587 226.551C122.769 226.418 122.948 225.88 123.113 225.166C124.389 224.942 126.586 225.476 128.403 230.595C128.446 232.048 128.551 233.355 128.551 233.355Z" fill="black"/>
<path d="M129.543 240.386C129.492 240.408 129.439 240.424 129.384 240.432C128.603 240.569 125.723 240.49 124.112 240.432C123.816 240.423 123.536 240.298 123.331 240.085C123.125 239.872 123.01 239.587 123.009 239.291C123.009 238.855 123.009 238.323 122.974 237.757C122.899 235.967 122.685 233.838 122.046 233.358C120.914 232.487 120.02 229.529 122.046 225.784C122.046 225.784 125.929 222.806 128.73 231.757C128.73 231.757 129.002 234.311 130.22 235.218C131.439 236.124 130.087 240.127 129.543 240.386Z" fill="#444053"/>
<path opacity="0.1" d="M129.378 240.432C128.597 240.569 125.718 240.49 124.106 240.432C123.811 240.423 123.531 240.298 123.325 240.085C123.119 239.872 123.004 239.587 123.003 239.291C123.003 238.855 123.003 238.323 122.969 237.757C123.458 235.589 124.161 233.358 125.067 232.85C125.072 232.847 127.813 232.536 129.378 240.432Z" fill="black"/>
<path d="M122.538 232.585L123.267 242.338H124.193V231.755L122.538 232.585Z" fill="#444053"/>
<path opacity="0.1" d="M124.8 63.2406C122.175 63.4368 119.634 64.2563 117.387 65.6316C116.808 65.9831 116.229 66.4102 115.989 67.0406C115.781 67.5868 115.867 68.2027 115.876 68.7837C115.954 73.7865 110.398 77.572 110.572 82.5719C110.641 84.5561 111.634 86.4038 111.816 88.3823C112.12 91.6826 110.176 94.7186 108.312 97.4524C110.232 97.5697 112.123 96.9403 113.593 95.6947C115.559 102.275 115.813 109.252 114.331 115.959H116.996C117.259 115.939 117.524 115.972 117.774 116.054C118.008 116.166 118.218 116.323 118.391 116.516C120.882 119.006 122.552 122.687 121.6 126.086L127.272 123.951C128.629 123.439 130.006 122.919 131.187 122.077C132.367 121.234 133.357 120.011 133.606 118.576C133.759 117.705 133.71 116.665 134.425 116.159C134.777 115.971 135.153 115.831 135.542 115.744C137.099 115.192 137.787 113.385 138.106 111.758C138.493 109.762 138.615 107.723 138.467 105.694C138.216 102.295 137.214 98.844 138.039 95.5262C138.505 93.664 139.541 91.9296 139.625 90.0063C139.761 86.8367 137.293 84.1058 136.925 80.9537C136.668 78.7573 137.458 76.5348 137.2 74.3385C137.057 73.2049 136.644 72.1226 135.996 71.1834C135.347 70.2443 134.483 69.4759 133.476 68.9435C132.778 68.5833 132.029 68.3421 131.34 67.9441C129.769 67.029 128.765 65.3817 127.338 64.2487C125.912 63.1157 123.536 62.6886 122.462 64.1615L124.8 63.2406Z" fill="black"/>
<path d="M124.8 62.8774C122.175 63.0736 119.634 63.8931 117.387 65.2684C116.808 65.6199 116.229 66.047 115.989 66.6774C115.781 67.2236 115.867 67.8395 115.876 68.4205C115.954 73.4233 110.398 77.2088 110.572 82.2116C110.641 84.1929 111.634 86.0406 111.816 88.022C112.12 91.3223 110.176 94.3583 108.312 97.095C110.231 97.2081 112.121 96.5792 113.593 95.3373C115.559 101.916 115.813 108.89 114.331 115.595H116.996C117.259 115.577 117.524 115.611 117.774 115.694C118.009 115.804 118.219 115.96 118.391 116.153C120.882 118.646 122.552 122.324 121.6 125.723L127.272 123.588C128.629 123.076 130.006 122.556 131.187 121.714C132.367 120.871 133.357 119.648 133.606 118.213C133.759 117.341 133.71 116.301 134.425 115.796C134.777 115.608 135.153 115.468 135.542 115.38C137.099 114.828 137.787 113.021 138.106 111.394C138.497 109.397 138.621 107.356 138.476 105.325C138.224 101.926 137.223 98.475 138.048 95.1572C138.514 93.295 139.55 91.5606 139.634 89.6373C139.77 86.4677 137.301 83.7368 136.934 80.5847C136.676 78.3883 137.466 76.1687 137.209 73.9695C137.065 72.836 136.652 71.7539 136.004 70.8148C135.355 69.8757 134.491 69.1073 133.484 68.5745C132.787 68.2143 132.038 67.9731 131.349 67.578C129.778 66.66 128.773 65.0127 127.347 63.8797C125.92 62.7466 123.545 62.3196 122.471 63.7925L124.8 62.8774Z" fill="#925978"/>
<g opacity="0.1">
<path opacity="0.1" d="M115.87 67.212C115.859 67.324 115.853 67.4365 115.853 67.549C115.862 67.4386 115.868 67.3253 115.87 67.212Z" fill="black"/>
<path opacity="0.1" d="M136.902 78.8416C137.006 77.3018 137.348 75.7562 137.22 74.2223C137.125 75.7621 136.783 77.3076 136.902 78.8416Z" fill="black"/>
<path opacity="0.1" d="M111.816 86.4969C111.648 84.6956 110.812 83.0106 110.615 81.2123C110.576 81.5419 110.562 81.874 110.572 82.2059C110.641 84.1669 111.611 86.0001 111.808 87.9524C111.855 87.4685 111.858 86.9813 111.816 86.4969Z" fill="black"/>
<path opacity="0.1" d="M138.059 93.6523C137.788 94.8345 137.691 96.0501 137.77 97.2606C137.799 96.5547 137.896 95.8532 138.059 95.166C138.525 93.3037 139.561 91.5693 139.645 89.646C139.659 89.3045 139.643 88.9623 139.599 88.6234C139.373 90.352 138.473 91.9615 138.059 93.6523Z" fill="black"/>
<path opacity="0.1" d="M113.593 93.8092C112.386 94.8247 110.892 95.4344 109.322 95.5523C108.992 96.0695 108.651 96.575 108.312 97.0747C110.231 97.1878 112.121 96.5588 113.593 95.317C114.65 98.8487 115.217 102.51 115.277 106.197C115.363 102.005 114.795 97.825 113.593 93.8092Z" fill="black"/>
<path opacity="0.1" d="M138.114 109.872C137.796 111.499 137.107 113.306 135.551 113.855C135.161 113.942 134.785 114.083 134.434 114.274C133.719 114.779 133.768 115.825 133.615 116.691C133.366 118.126 132.379 119.346 131.196 120.177C130.012 121.008 128.637 121.542 127.28 122.054L121.869 124.087C121.841 124.633 121.754 125.173 121.609 125.7L127.28 123.564C128.637 123.053 130.015 122.533 131.196 121.691C132.376 120.848 133.366 119.625 133.615 118.19C133.768 117.318 133.719 116.278 134.434 115.773C134.786 115.585 135.161 115.445 135.551 115.357C137.107 114.805 137.796 112.998 138.114 111.371C138.444 109.678 138.581 107.953 138.522 106.229C138.484 107.452 138.348 108.671 138.114 109.872Z" fill="black"/>
<path opacity="0.1" d="M118.399 114.622C118.227 114.428 118.018 114.271 117.783 114.16C117.532 114.078 117.268 114.044 117.005 114.062H114.641C114.548 114.567 114.45 115.073 114.351 115.575H117.016C117.28 115.557 117.544 115.59 117.795 115.674C118.029 115.783 118.239 115.94 118.411 116.133C120.234 117.957 121.614 120.415 121.852 122.937C122.144 119.921 120.587 116.819 118.399 114.622Z" fill="black"/>
</g>
<path opacity="0.1" d="M105.178 124.523C105.178 124.523 107.331 123.617 107.811 124.523C108.292 125.43 105.178 124.523 105.178 124.523Z" fill="black"/>
<path opacity="0.1" d="M105.939 126.077C105.939 126.077 108.092 125.171 108.575 126.077C109.059 126.984 105.939 126.077 105.939 126.077Z" fill="black"/>
<path d="M272.204 97.6762H268.731V94.1899H266.127V97.6762H262.654V100.291H266.127V103.777H268.731V100.291H272.204V97.6762Z" fill="white"/>
</g>
<defs>
<linearGradient id="paint0_linear" x1="177.217" y1="171.925" x2="177.217" y2="27.7565" gradientUnits="userSpaceOnUse">
<stop stop-color="#808080" stop-opacity="0.25"/>
<stop offset="0.54" stop-color="#808080" stop-opacity="0.12"/>
<stop offset="1" stop-color="#808080" stop-opacity="0.1"/>
</linearGradient>
<clipPath id="clip0">
<rect width="323" height="249" fill="white"/>
</clipPath>
</defs>
</svg>
