<svg width="140" height="181" viewBox="0 0 140 181" fill="none" xmlns="http://www.w3.org/2000/svg">
<path d="M140 76.5C140 118.75 108.66 153 70 153C31.3401 153 0 118.75 0 76.5C0 34.2503 31.3401 4.93277e-05 70 4.93277e-05C108.66 4.93277e-05 140 34.2503 140 76.5Z" fill="#C4C4C4"/>
<path d="M50.7465 174.52C50.7465 167.68 52.2465 161.56 55.2465 156.16C58.2465 150.64 61.9065 145.84 66.2265 141.76C70.6665 137.68 76.4265 133.06 83.5065 127.9C89.6265 123.22 94.4265 119.32 97.9065 116.2C101.507 113.08 104.507 109.66 106.907 105.94C109.907 101.26 111.407 95.98 111.407 90.1C111.407 86.26 109.967 82.9 107.087 80.02C104.327 77.02 100.307 75.52 95.0265 75.52C83.1465 75.52 77.2065 81.22 77.2065 92.62V100H52.7265C52.6065 99.64 52.4265 98.8 52.1865 97.48C52.0665 96.16 52.0065 94.6 52.0065 92.8C52.0065 80.32 56.1465 70.96 64.4265 64.72C72.8265 58.48 83.3865 55.36 96.1065 55.36C107.267 55.36 115.847 57.52 121.847 61.84C127.847 66.16 131.747 71.02 133.547 76.42C135.467 81.82 136.427 86.86 136.427 91.54C136.427 99.82 134.567 107.2 130.847 113.68C127.127 120.04 122.687 125.44 117.527 129.88C112.487 134.2 106.187 138.94 98.6265 144.1C92.8665 148.06 88.5465 151.3 85.6665 153.82C83.6265 155.62 82.1265 157.36 81.1665 159.04H137.147V181H50.7465V174.52Z" fill="black"/>
</svg>
