<svg width="20" height="20" viewBox="0 0 30 30" fill="none" xmlns="http://www.w3.org/2000/svg">
<g clip-path="url(#clip0)">
<path d="M20.875 13.125C20.875 15.1875 19.1875 16.875 17.125 16.875C15.0625 16.875 13.375 15.1875 13.375 13.125V11.25H9.625V13.125C9.625 17.25 13 20.625 17.125 20.625C21.25 20.625 24.625 17.25 24.625 13.125V11.25H20.875V13.125Z" fill="#505050"/>
<path d="M25.5625 0H8.6875C6.0625 0 4 2.0625 4 4.6875V28.125C4 29.25 4.75 30 5.875 30H28.375C29.5 30 30.25 29.25 30.25 28.125V4.6875C30.25 2.0625 28.1875 0 25.5625 0ZM8.6875 3.75H25.5625C26.125 3.75 26.5 4.125 26.5 4.6875C26.5 5.25 26.125 5.625 25.5625 5.625H8.6875C8.125 5.625 7.75 5.25 7.75 4.6875C7.75 4.125 8.125 3.75 8.6875 3.75ZM7.75 26.25V9.1875C8.125 9.375 8.3125 9.375 8.6875 9.375H25.5625C25.9375 9.375 26.125 9.375 26.5 9.1875V26.25H7.75Z" fill="#505050"/>
</g>
<defs>
<clipPath id="clip0">
<rect width="30" height="30" fill="white"/>
</clipPath>
</defs>
</svg>
